<svg preserveAspectRatio="none" width="100%" height="100%" overflow="visible" style="display: block;" viewBox="0 0 16.3333 16.3333" fill="none" xmlns="http://www.w3.org/2000/svg">
<g id="info-circle-svgrepo-com (3) 1">
<path id="Vector" fill-rule="evenodd" clip-rule="evenodd" d="M1 8.16667C1 4.20863 4.20863 1 8.16667 1C12.1247 1 15.3333 4.20863 15.3333 8.16667C15.3333 12.1247 12.1247 15.3333 8.16667 15.3333C4.20863 15.3333 1 12.1247 1 8.16667ZM8.16667 2C4.76091 2 2 4.76091 2 8.16667C2 11.5724 4.76091 14.3333 8.16667 14.3333C11.5724 14.3333 14.3333 11.5724 14.3333 8.16667C14.3333 4.76091 11.5724 2 8.16667 2Z" fill="var(--fill-0, #262626)"/>
<path id="Vector_2" d="M8.16667 12.0799C8.44855 12.0799 8.67708 11.8513 8.67708 11.5694V7.48611C8.67708 7.20422 8.44855 6.97569 8.16667 6.97569C7.88478 6.97569 7.65625 7.20422 7.65625 7.48611V11.5694C7.65625 11.8513 7.88478 12.0799 8.16667 12.0799Z" fill="var(--fill-0, #262626)"/>
<path id="Vector_3" d="M8.16667 4.76389C8.54254 4.76389 8.84722 5.06859 8.84722 5.44444C8.84722 5.8203 8.54254 6.125 8.16667 6.125C7.79079 6.125 7.48611 5.8203 7.48611 5.44444C7.48611 5.06859 7.79079 4.76389 8.16667 4.76389Z" fill="var(--fill-0, #262626)"/>
</g>
</svg>
