<svg preserveAspectRatio="none" width="100%" height="100%" overflow="visible" style="display: block;" viewBox="0 0 24 22" fill="none" xmlns="http://www.w3.org/2000/svg">
<g id="phone-svgrepo-com 1">
<path id="Vector" d="M15.1634 13.9329L15.5605 13.5412L14.6384 12.6213L14.2414 13.013L15.1634 13.9329ZM16.8939 13.3771L18.5593 14.2754L19.1838 13.1357L17.5184 12.2374L16.8939 13.3771ZM18.8799 16.0606L17.6415 17.2822L18.5635 18.2021L19.8019 16.9805L18.8799 16.0606ZM16.887 17.6755C15.623 17.7924 12.353 17.6882 8.81254 14.1956L7.89056 15.1156C11.7541 18.9269 15.4314 19.113 17.0083 18.9672L16.887 17.6755ZM8.81254 14.1956C5.43773 10.8665 4.8787 8.06641 4.80911 6.85165L3.50362 6.92526C3.59119 8.45416 4.28341 11.5572 7.89056 15.1156L8.81254 14.1956ZM10.0114 8.85062L10.2615 8.60398L9.33951 7.68407L9.08949 7.9307L10.0114 8.85062ZM10.4605 5.46007L9.36126 4.00332L8.3145 4.78077L9.4137 6.23753L10.4605 5.46007ZM5.66423 3.68625L4.29596 5.03601L5.21794 5.95593L6.58621 4.60617L5.66423 3.68625ZM9.55047 8.39066C9.08949 7.9307 9.08887 7.93132 9.08824 7.93194C9.08803 7.93215 9.0874 7.93278 9.08697 7.9332C9.08612 7.93406 9.08525 7.93492 9.08437 7.93581C9.0826 7.9376 9.08077 7.93946 9.07888 7.9414C9.07511 7.94528 9.07112 7.94949 9.06692 7.95402C9.0585 7.96307 9.04927 7.97343 9.03939 7.98514C9.01962 8.00853 8.99723 8.03734 8.97369 8.0718C8.92651 8.1409 8.87509 8.23225 8.83146 8.34714C8.74243 8.58155 8.6947 8.89057 8.75454 9.27322C8.87156 10.0216 9.39103 11.0101 10.7217 12.3227L11.6437 11.4028C10.3984 10.1743 10.1018 9.42677 10.0467 9.07434C10.0204 8.90662 10.0476 8.82407 10.0551 8.80453C10.0597 8.79244 10.0618 8.7912 10.0563 8.79946C10.0535 8.8035 10.0488 8.80982 10.0416 8.81834C10.038 8.8226 10.0338 8.82743 10.0288 8.83281C10.0263 8.8355 10.0236 8.83833 10.0207 8.84129C10.0193 8.84278 10.0178 8.84429 10.0162 8.84585C10.0155 8.84663 10.0147 8.84742 10.0139 8.84821C10.0135 8.84861 10.0129 8.84921 10.0127 8.84941C10.0121 8.85002 10.0114 8.85062 9.55047 8.39066ZM10.7217 12.3227C12.0529 13.6358 13.0539 14.1469 13.8094 14.2619C14.1955 14.3206 14.5068 14.2737 14.7429 14.1865C14.8587 14.1437 14.9509 14.0932 15.0207 14.0469C15.0555 14.0237 15.0847 14.0017 15.1083 13.9822C15.1201 13.9725 15.1306 13.9634 15.1398 13.9551C15.1444 13.951 15.1487 13.9471 15.1526 13.9434C15.1546 13.9415 15.1564 13.9396 15.1582 13.9379C15.1591 13.937 15.16 13.9362 15.1609 13.9353C15.1613 13.9349 15.162 13.9343 15.1622 13.9341C15.1628 13.9335 15.1634 13.9329 14.7024 13.4729C14.2414 13.013 14.242 13.0124 14.2427 13.0117C14.2428 13.0116 14.2434 13.011 14.2439 13.0105C14.2447 13.0098 14.2454 13.009 14.2462 13.0082C14.2479 13.0067 14.2494 13.0053 14.2509 13.0038C14.2539 13.0009 14.2568 12.9983 14.2595 12.9958C14.2649 12.991 14.2698 12.9868 14.2741 12.9833C14.2827 12.9762 14.289 12.9717 14.293 12.969C14.3011 12.9637 14.2994 12.9661 14.2865 12.9708C14.2652 12.9787 14.1796 13.0058 14.0077 12.9796C13.6474 12.9248 12.8886 12.6308 11.6437 11.4028L10.7217 12.3227ZM9.36126 4.00332C8.4727 2.82575 6.72542 2.63942 5.66423 3.68625L6.58621 4.60617C7.04969 4.14895 7.87285 4.19549 8.3145 4.78077L9.36126 4.00332ZM4.80911 6.85165C4.79196 6.55232 4.93034 6.23964 5.21794 5.95593L4.29596 5.03601C3.82756 5.49807 3.45932 6.15216 3.50362 6.92526L4.80911 6.85165ZM17.6415 17.2822C17.402 17.5186 17.1452 17.6517 16.887 17.6755L17.0083 18.9672C17.6487 18.9079 18.1734 18.587 18.5635 18.2021L17.6415 17.2822ZM10.2615 8.60398C11.1197 7.75736 11.1835 6.41823 10.4605 5.46007L9.4137 6.23753C9.76544 6.70366 9.71314 7.31549 9.33951 7.68407L10.2615 8.60398ZM18.5593 14.2754C19.2722 14.6599 19.3833 15.564 18.8799 16.0606L19.8019 16.9805C20.9703 15.828 20.61 13.9048 19.1838 13.1357L18.5593 14.2754ZM15.5605 13.5412C15.8952 13.211 16.434 13.1292 16.8939 13.3771L17.5184 12.2374C16.5738 11.728 15.4015 11.8687 14.6384 12.6213L15.5605 13.5412Z" fill="var(--fill-0, #262626)"/>
</g>
</svg>
