<svg preserveAspectRatio="none" width="100%" height="100%" overflow="visible" style="display: block;" viewBox="0 0 24 24" fill="none" xmlns="http://www.w3.org/2000/svg">
<g id="Icon-Set">
<path id="zoom" fill-rule="evenodd" clip-rule="evenodd" d="M18.729 4.5H15C14.586 4.5 14.25 4.836 14.25 5.25C14.25 5.66475 14.586 6 15 6H16.971L13.3725 9.59926L14.433 10.6598L18.0165 7.07625L18 9C18 9.41475 18.336 9.75 18.75 9.75C19.164 9.75 19.5 9.41475 19.5 9V5.25C19.5 5.028 19.4078 4.84877 19.263 4.72577C19.1265 4.58627 18.9383 4.5 18.729 4.5ZM22.5 21C22.5 21.825 21.828 22.5 21 22.5H3C2.172 22.5 1.5 21.825 1.5 21V3C1.5 2.172 2.172 1.5 3 1.5H21C21.828 1.5 22.5 2.172 22.5 3V21ZM21 0H3C1.34325 0 0 1.34325 0 3V21C0 22.6575 1.34325 24 3 24H21C22.6568 24 24 22.6575 24 21V3C24 1.34325 22.6568 0 21 0ZM9.567 13.3425L5.9835 16.9275L6 15C6 14.5875 5.664 14.25 5.25 14.25C4.836 14.25 4.5 14.5875 4.5 15V18.75C4.5 18.975 4.59225 19.155 4.737 19.275C4.87275 19.41 5.06175 19.5 5.271 19.5H9C9.414 19.5 9.75 19.1625 9.75 18.75C9.75 18.3375 9.414 18 9 18H7.029L10.6275 14.4L9.567 13.3425ZM18.75 14.25C18.336 14.25 18 14.5875 18 15L18.0165 16.9275L14.433 13.3425L13.3725 14.4L16.971 18H15C14.586 18 14.25 18.3375 14.25 18.75C14.25 19.1625 14.586 19.5 15 19.5H18.729C18.9383 19.5 19.1273 19.41 19.263 19.275C19.4078 19.155 19.5 18.975 19.5 18.75V15C19.5 14.5875 19.164 14.25 18.75 14.25ZM9 6C9.414 6 9.75 5.66475 9.75 5.25C9.75 4.836 9.414 4.5 9 4.5H5.271C5.06175 4.5 4.8735 4.58627 4.737 4.72577C4.59225 4.84877 4.5 5.028 4.5 5.25V9C4.5 9.41475 4.836 9.75 5.25 9.75C5.664 9.75 6 9.41475 6 9L5.9835 7.07625L9.567 10.6598L10.6275 9.59926L7.029 6H9Z" fill="var(--fill-0, white)"/>
</g>
</svg>
