<svg preserveAspectRatio="none" width="100%" height="100%" overflow="visible" style="display: block;" viewBox="0 0 10.5059 10.5059" fill="none" xmlns="http://www.w3.org/2000/svg">
<path id="icon" d="M0.972656 0.158203L5.26172 4.4707L9.55078 0.181641C9.76172 -0.0527344 10.1133 -0.0527344 10.3477 0.181641C10.5586 0.392578 10.5586 0.744141 10.3477 0.955078L6.03516 5.26758L10.3242 9.55664C10.5586 9.76758 10.5586 10.1191 10.3242 10.3301C10.1133 10.5645 9.76172 10.5645 9.55078 10.3301L5.23828 6.04102L0.949219 10.3301C0.738281 10.5645 0.386719 10.5645 0.175781 10.3301C-0.0585938 10.1191 -0.0585938 9.76758 0.175781 9.5332L4.46484 5.24414L0.175781 0.955078C-0.0585938 0.744141 -0.0585938 0.392578 0.175781 0.158203C0.386719 -0.0527344 0.738281 -0.0527344 0.972656 0.158203Z" fill="var(--fill-0, #262626)"/>
</svg>
