<svg preserveAspectRatio="none" width="100%" height="100%" overflow="visible" style="display: block;" viewBox="0 0 23.9938 23.9925" fill="none" xmlns="http://www.w3.org/2000/svg">
<g id="Icon-Set">
<path id="zoom-out" fill-rule="evenodd" clip-rule="evenodd" d="M10.095 18.3375C5.37749 18.3375 1.55326 14.58 1.55326 9.9375C1.55326 5.295 5.37749 1.53003 10.095 1.53003C14.8125 1.53003 18.6375 5.295 18.6375 9.9375C18.6375 14.58 14.8125 18.3375 10.095 18.3375ZM23.766 22.6875L17.5717 16.59C19.194 14.8275 20.19 12.5025 20.19 9.9375C20.19 4.4475 15.6705 0 10.095 0C4.51949 0 0 4.4475 0 9.9375C0 15.42 4.51949 19.8675 10.095 19.8675C12.504 19.8675 14.7135 19.035 16.449 17.6475L22.6688 23.7675C22.9718 24.0675 23.463 24.0675 23.766 23.7675C24.0697 23.475 24.0697 22.9875 23.766 22.6875ZM14.0167 9.30753H6.48225C6.0765 9.30753 5.74725 9.63 5.74725 10.0275C5.74725 10.425 6.0765 10.7475 6.48225 10.7475H14.0167C14.4225 10.7475 14.7518 10.425 14.7518 10.0275C14.7518 9.63 14.4225 9.30753 14.0167 9.30753Z" fill="var(--fill-0, white)"/>
</g>
</svg>
