<svg preserveAspectRatio="none" width="100%" height="100%" overflow="visible" style="display: block;" viewBox="0 0 10.1309 10.1309" fill="none" xmlns="http://www.w3.org/2000/svg">
<path id="icon" d="M4.67578 9.95508L0.175781 5.45508C-0.0585938 5.24414 -0.0585938 4.89258 0.175781 4.6582C0.386719 4.44727 0.738281 4.44727 0.972656 4.6582L5.07422 8.7832L9.17578 4.68164C9.38672 4.44727 9.73828 4.44727 9.97266 4.68164C10.1836 4.89258 10.1836 5.24414 9.97266 5.45508L5.44922 9.95508C5.23828 10.1895 4.88672 10.1895 4.67578 9.95508ZM0.175781 0.955078C-0.0585938 0.744141 -0.0585938 0.392578 0.175781 0.158203C0.386719 -0.0527344 0.738281 -0.0527344 0.972656 0.158203L5.07422 4.2832L9.17578 0.181641C9.38672 -0.0527344 9.73828 -0.0527344 9.97266 0.181641C10.1836 0.392578 10.1836 0.744141 9.97266 0.955078L5.44922 5.45508C5.23828 5.68945 4.88672 5.68945 4.67578 5.45508L0.175781 0.955078Z" fill="var(--fill-0, #262626)"/>
</svg>
