<svg preserveAspectRatio="none" width="100%" height="100%" overflow="visible" style="display: block;" viewBox="0 0 14 15.9766" fill="none" xmlns="http://www.w3.org/2000/svg">
<path id="icon" d="M9.5 3.97656C9.5 3.10156 9 2.28906 8.25 1.82031C7.46875 1.38281 6.5 1.38281 5.75 1.82031C4.96875 2.28906 4.5 3.10156 4.5 3.97656C4.5 4.88281 4.96875 5.69531 5.75 6.16406C6.5 6.60156 7.46875 6.60156 8.25 6.16406C9 5.69531 9.5 4.88281 9.5 3.97656ZM3 3.97656C3 2.57031 3.75 1.25781 5 0.539062C6.21875 -0.179688 7.75 -0.179688 9 0.539062C10.2188 1.25781 11 2.57031 11 3.97656C11 5.41406 10.2188 6.72656 9 7.44531C7.75 8.16406 6.21875 8.16406 5 7.44531C3.75 6.72656 3 5.41406 3 3.97656ZM1.53125 14.4766H12.4375C12.1562 12.5078 10.4688 10.9766 8.40625 10.9766H5.5625C3.5 10.9766 1.8125 12.5078 1.53125 14.4766ZM0 15.0703C0 11.9766 2.46875 9.47656 5.5625 9.47656H8.40625C11.5 9.47656 14 11.9766 14 15.0703C14 15.5703 13.5625 15.9766 13.0625 15.9766H0.90625C0.40625 15.9766 0 15.5703 0 15.0703Z" fill="var(--fill-0, #262626)"/>
</svg>
