<svg preserveAspectRatio="none" width="100%" height="100%" overflow="visible" style="display: block;" viewBox="0 0 17.9896 15.9766" fill="none" xmlns="http://www.w3.org/2000/svg">
<path id="icon" d="M9.47917 0.164062L17.7292 7.16406C18.0417 7.44531 18.0729 7.91406 17.8229 8.22656C17.5417 8.53906 17.0729 8.57031 16.7604 8.32031L16.0104 7.66406V13.4766C16.0104 14.8828 14.8854 15.9766 13.5104 15.9766H4.51042C3.10417 15.9766 2.01042 14.8828 2.01042 13.4766V7.66406L1.22917 8.32031C0.916667 8.57031 0.447917 8.53906 0.166667 8.22656C-0.0833333 7.91406 -0.0520833 7.44531 0.260417 7.16406L8.51042 0.164062C8.79167 -0.0546875 9.19792 -0.0546875 9.47917 0.164062ZM14.5104 6.38281L9.01042 1.72656L3.51042 6.38281V13.4766C3.51042 14.0391 3.94792 14.4766 4.51042 14.4766H13.5104C14.0417 14.4766 14.5104 14.0391 14.5104 13.4766V6.38281Z" fill="var(--fill-0, #262626)"/>
</svg>
