<svg preserveAspectRatio="none" width="100%" height="100%" overflow="visible" style="display: block;" viewBox="0 0 23.9938 23.9925" fill="none" xmlns="http://www.w3.org/2000/svg">
<g id="Icon-Set">
<path id="zoom-in" fill-rule="evenodd" clip-rule="evenodd" d="M10.095 18.3375C5.37749 18.3375 1.55251 14.58 1.55251 9.9375C1.55251 5.295 5.37749 1.53003 10.095 1.53003C14.8125 1.53003 18.6375 5.295 18.6375 9.9375C18.6375 14.58 14.8125 18.3375 10.095 18.3375ZM23.766 22.6875L17.5717 16.59C19.194 14.8275 20.19 12.5025 20.19 9.9375C20.19 4.4475 15.6705 0 10.095 0C4.51949 0 0 4.4475 0 9.9375C0 15.42 4.51949 19.8675 10.095 19.8675C12.504 19.8675 14.7135 19.035 16.449 17.6475L22.6688 23.7675C22.9718 24.0675 23.463 24.0675 23.766 23.7675C24.0697 23.475 24.0697 22.9875 23.766 22.6875ZM13.8893 9.30753H10.8915V6.30753C10.8915 5.88753 10.5563 5.55753 10.1423 5.55753C9.72901 5.55753 9.39299 5.88753 9.39299 6.30753V9.30753H6.39674C5.98349 9.30753 5.6475 9.44251 5.6475 9.85501C5.6475 10.275 5.98349 10.8075 6.39674 10.8075H9.39299V13.8075C9.39299 14.2275 9.72901 14.5575 10.1423 14.5575C10.5563 14.5575 10.8915 14.2275 10.8915 13.8075V10.8075H13.8893C14.3025 10.8075 14.6385 10.47 14.6385 10.0575C14.6385 9.64503 14.3025 9.30753 13.8893 9.30753Z" fill="var(--fill-0, white)"/>
</g>
</svg>
