<svg preserveAspectRatio="none" width="100%" height="100%" overflow="visible" style="display: block;" viewBox="0 0 12.0081 14" fill="none" xmlns="http://www.w3.org/2000/svg">
<path id="icon" d="M6.55094 0.25L11.8009 5.75C12.0822 6.0625 12.0822 6.53125 11.7697 6.8125C11.4572 7.09375 10.9884 7.09375 10.7072 6.78125L6.76969 2.625V13.25C6.76969 13.6875 6.42594 14 6.01969 14C5.58219 14 5.26969 13.6875 5.26969 13.25V2.625L1.30094 6.78125C1.01969 7.09375 0.550936 7.09375 0.238436 6.8125C-0.0740645 6.53125 -0.0740645 6.03125 0.207186 5.75L5.45719 0.25C5.61344 0.09375 5.80094 0 6.01969 0C6.20719 0 6.39469 0.09375 6.55094 0.25Z" fill="var(--fill-0, black)" fill-opacity="0.85"/>
</svg>
