<svg preserveAspectRatio="none" width="100%" height="100%" overflow="visible" style="display: block;" viewBox="0 0 16 16" fill="none" xmlns="http://www.w3.org/2000/svg">
<g id="icon/arrow-up-16x16">
<path id="icon" d="M8.39844 2.9375L12.3359 7.0625C12.5469 7.29688 12.5469 7.64844 12.3125 7.85938C12.0781 8.07031 11.7266 8.07031 11.5156 7.83594L8.5625 4.71875V12.6875C8.5625 13.0156 8.30469 13.25 8 13.25C7.67188 13.25 7.4375 13.0156 7.4375 12.6875V4.71875L4.46094 7.83594C4.25 8.07031 3.89844 8.07031 3.66406 7.85938C3.42969 7.64844 3.42969 7.27344 3.64063 7.0625L7.57813 2.9375C7.69531 2.82031 7.83594 2.75 8 2.75C8.14063 2.75 8.28125 2.82031 8.39844 2.9375Z" fill="var(--fill-0, #262626)"/>
</g>
</svg>
