<svg preserveAspectRatio="none" width="100%" height="100%" overflow="visible" style="display: block;" viewBox="0 0 14.9087 20" fill="none" xmlns="http://www.w3.org/2000/svg">
<g id="Group">
<path id="Vector" d="M12.2465 20H2.66227C1.9562 20 1.27904 19.7349 0.779762 19.2631C0.280489 18.7913 0 18.1514 0 17.4842V2.51585C0 1.84861 0.280489 1.20869 0.779762 0.736875C1.27904 0.265062 1.9562 0 2.66227 0H12.2465C12.9525 0 13.6297 0.265062 14.129 0.736875C14.6283 1.20869 14.9087 1.84861 14.9087 2.51585V17.4842C14.9087 18.1514 14.6283 18.7913 14.129 19.2631C13.6297 19.7349 12.9525 20 12.2465 20ZM2.66227 1.00634C2.23863 1.00634 1.83233 1.16538 1.53277 1.44847C1.2332 1.73155 1.06491 2.1155 1.06491 2.51585V17.4842C1.06491 17.8845 1.2332 18.2684 1.53277 18.5515C1.83233 18.8346 2.23863 18.9937 2.66227 18.9937H12.2465C12.6701 18.9937 13.0764 18.8346 13.376 18.5515C13.6755 18.2684 13.8438 17.8845 13.8438 17.4842V2.51585C13.8438 2.1155 13.6755 1.73155 13.376 1.44847C13.0764 1.16538 12.6701 1.00634 12.2465 1.00634H2.66227Z" fill="var(--fill-0, black)"/>
<path id="Vector_2" d="M10.1165 7.74277H4.79199C4.36834 7.74277 3.96205 7.58373 3.66248 7.30064C3.36292 7.01755 3.19463 6.6336 3.19463 6.23326V4.52852C3.19463 4.12817 3.36292 3.74422 3.66248 3.46113C3.96205 3.17805 4.36834 3.01901 4.79199 3.01901H10.1165C10.5402 3.01901 10.9465 3.17805 11.246 3.46113C11.5456 3.74422 11.7139 4.12817 11.7139 4.52852V6.23326C11.7139 6.6336 11.5456 7.01755 11.246 7.30064C10.9465 7.58373 10.5402 7.74277 10.1165 7.74277ZM4.79199 4.02535C4.65077 4.02535 4.51534 4.07836 4.41549 4.17272C4.31563 4.26709 4.25954 4.39507 4.25954 4.52852V6.23326C4.25954 6.36671 4.31563 6.49469 4.41549 6.58905C4.51534 6.68342 4.65077 6.73643 4.79199 6.73643H10.1165C10.2578 6.73643 10.3932 6.68342 10.493 6.58905C10.5929 6.49469 10.649 6.36671 10.649 6.23326V4.52852C10.649 4.39507 10.5929 4.26709 10.493 4.17272C10.3932 4.07836 10.2578 4.02535 10.1165 4.02535H4.79199Z" fill="var(--fill-0, black)"/>
<g id="Group_2">
<path id="Vector_3" d="M7.45403 10.2597C7.89513 10.2597 8.25271 9.92175 8.25271 9.50491C8.25271 9.08807 7.89513 8.75016 7.45403 8.75016C7.01293 8.75016 6.65535 9.08807 6.65535 9.50491C6.65535 9.92175 7.01293 10.2597 7.45403 10.2597Z" fill="var(--fill-0, black)"/>
<path id="Vector_4" d="M10.9149 10.2597C11.356 10.2597 11.7136 9.92175 11.7136 9.50491C11.7136 9.08807 11.356 8.75016 10.9149 8.75016C10.4738 8.75016 10.1163 9.08807 10.1163 9.50491C10.1163 9.92175 10.4738 10.2597 10.9149 10.2597Z" fill="var(--fill-0, black)"/>
<path id="Vector_5" d="M3.99331 10.2596C4.43441 10.2596 4.79199 9.92172 4.79199 9.50488C4.79199 9.08804 4.43441 8.75012 3.99331 8.75012C3.55221 8.75012 3.19463 9.08804 3.19463 9.50488C3.19463 9.92172 3.55221 10.2596 3.99331 10.2596Z" fill="var(--fill-0, black)"/>
</g>
<g id="Group_3">
<path id="Vector_6" d="M7.45403 13.6208C7.89513 13.6208 8.25271 13.2829 8.25271 12.866C8.25271 12.4492 7.89513 12.1113 7.45403 12.1113C7.01293 12.1113 6.65535 12.4492 6.65535 12.866C6.65535 13.2829 7.01293 13.6208 7.45403 13.6208Z" fill="var(--fill-0, black)"/>
<path id="Vector_7" d="M10.9149 13.6208C11.356 13.6208 11.7136 13.2829 11.7136 12.866C11.7136 12.4492 11.356 12.1113 10.9149 12.1113C10.4738 12.1113 10.1163 12.4492 10.1163 12.866C10.1163 13.2829 10.4738 13.6208 10.9149 13.6208Z" fill="var(--fill-0, black)"/>
<path id="Vector_8" d="M3.99331 13.6208C4.43441 13.6208 4.79199 13.2829 4.79199 12.8661C4.79199 12.4492 4.43441 12.1113 3.99331 12.1113C3.55221 12.1113 3.19463 12.4492 3.19463 12.8661C3.19463 13.2829 3.55221 13.6208 3.99331 13.6208Z" fill="var(--fill-0, black)"/>
</g>
<g id="Group_4">
<path id="Vector_9" d="M10.9149 16.981C11.356 16.981 11.7136 16.6431 11.7136 16.2263C11.7136 15.8094 11.356 15.4715 10.9149 15.4715C10.4738 15.4715 10.1163 15.8094 10.1163 16.2263C10.1163 16.6431 10.4738 16.981 10.9149 16.981Z" fill="var(--fill-0, black)"/>
<path id="Vector_10" d="M7.71816 16.7294H3.72688C3.58567 16.7294 3.45023 16.6764 3.35038 16.582C3.25052 16.4877 3.19443 16.3597 3.19443 16.2262C3.19443 16.0928 3.25052 15.9648 3.35038 15.8704C3.45023 15.7761 3.58567 15.7231 3.72688 15.7231H7.71391C7.85512 15.7231 7.99055 15.7761 8.09041 15.8704C8.19026 15.9648 8.24636 16.0928 8.24636 16.2262C8.24636 16.3597 8.19026 16.4877 8.09041 16.582C7.99055 16.6764 7.85512 16.7294 7.71391 16.7294H7.71816Z" fill="var(--fill-0, black)"/>
</g>
</g>
</svg>
