<svg preserveAspectRatio="none" width="100%" height="100%" overflow="visible" style="display: block;" viewBox="0 0 3 6" fill="none" xmlns="http://www.w3.org/2000/svg">
<path id="icon" d="M1.5 1.5C1.89844 1.5 2.25 1.17188 2.25 0.75C2.25 0.351562 1.89844 0 1.5 0C1.07812 0 0.75 0.351562 0.75 0.75C0.75 1.17188 1.07812 1.5 1.5 1.5ZM2.4375 4.875H2.0625V2.8125C2.0625 2.50781 1.80469 2.25 1.5 2.25H0.75C0.421875 2.25 0.1875 2.50781 0.1875 2.8125C0.1875 3.14062 0.421875 3.375 0.75 3.375H0.9375V4.875H0.5625C0.234375 4.875 0 5.13281 0 5.4375C0 5.76562 0.234375 6 0.5625 6H2.4375C2.74219 6 3 5.76562 3 5.4375C3 5.13281 2.74219 4.875 2.4375 4.875Z" fill="var(--fill-0, black)" fill-opacity="0.25"/>
</svg>
