<svg preserveAspectRatio="none" width="100%" height="100%" overflow="visible" style="display: block;" viewBox="0 0 16.3333 16.3333" fill="none" xmlns="http://www.w3.org/2000/svg">
<g id="info-circle-svgrepo-com (3) 1">
<path id="Vector" fill-rule="evenodd" clip-rule="evenodd" d="M1 8.16667C1 4.20863 4.20863 1 8.16667 1C12.1247 1 15.3333 4.20863 15.3333 8.16667C15.3333 12.1247 12.1247 15.3333 8.16667 15.3333C4.20863 15.3333 1 12.1247 1 8.16667ZM8.16667 2C4.76091 2 2 4.76091 2 8.16667C2 11.5724 4.76091 14.3333 8.16667 14.3333C11.5724 14.3333 14.3333 11.5724 14.3333 8.16667C14.3333 4.76091 11.5724 2 8.16667 2Z" fill="var(--fill-0, #262626)"/>
<path id="Vector_2" d="M8.16667 12.0807C8.44855 12.0807 8.67708 11.8522 8.67708 11.5703V7.48698C8.67708 7.20509 8.44855 6.97656 8.16667 6.97656C7.88478 6.97656 7.65625 7.20509 7.65625 7.48698V11.5703C7.65625 11.8522 7.88478 12.0807 8.16667 12.0807Z" fill="var(--fill-0, #262626)"/>
<path id="Vector_3" d="M8.16688 4.76562C8.54275 4.76562 8.84744 5.07032 8.84744 5.44618C8.84744 5.82204 8.54275 6.12674 8.16688 6.12674C7.79101 6.12674 7.48633 5.82204 7.48633 5.44618C7.48633 5.07032 7.79101 4.76562 8.16688 4.76562Z" fill="var(--fill-0, #262626)"/>
</g>
</svg>
