<svg preserveAspectRatio="none" width="100%" height="100%" overflow="visible" style="display: block;" viewBox="0 0 16 16" fill="none" xmlns="http://www.w3.org/2000/svg">
<g id="icon/arrow-left-16x16">
<path id="icon" d="M2.91406 8.42188C2.79688 8.30469 2.75 8.16406 2.75 8C2.75 7.85938 2.79688 7.71875 2.91406 7.60156L7.03906 3.66406C7.27344 3.45313 7.625 3.45313 7.83594 3.6875C8.04688 3.89844 8.04688 4.27344 7.8125 4.48438L4.69531 7.4375H12.6875C12.9922 7.4375 13.25 7.69531 13.25 8C13.25 8.32813 12.9922 8.5625 12.6875 8.5625H4.69531L7.8125 11.5391C8.04688 11.75 8.04688 12.1016 7.83594 12.3359C7.625 12.5703 7.27344 12.5703 7.03906 12.3594L2.91406 8.42188Z" fill="var(--fill-0, #262626)"/>
</g>
</svg>
