<svg preserveAspectRatio="none" width="100%" height="100%" overflow="visible" style="display: block;" viewBox="0 0 13.9688 12.0081" fill="none" xmlns="http://www.w3.org/2000/svg">
<path id="icon" d="M13.9688 5.98844C13.9688 6.42594 13.625 6.76969 13.2188 6.76969H2.59375L6.75 10.7072C7.0625 10.9884 7.0625 11.4884 6.78125 11.7697C6.5 12.0822 6.03125 12.0822 5.71875 11.8009L0.21875 6.55094C0.0625 6.39469 0 6.20719 0 5.98844C0 5.80094 0.0625 5.61344 0.21875 5.45719L5.71875 0.207186C6.03125 -0.0740645 6.5 -0.0740645 6.78125 0.238436C7.0625 0.519686 7.0625 1.01969 6.75 1.30094L2.59375 5.23844H13.2188C13.6562 5.23844 13.9688 5.58219 13.9688 5.98844Z" fill="var(--fill-0, #262626)"/>
</svg>
