<svg preserveAspectRatio="none" width="100%" height="100%" overflow="visible" style="display: block;" viewBox="0 0 266 150" fill="none" xmlns="http://www.w3.org/2000/svg">
<g id="Working In Progress">
<path id="Vector" d="M181.07 90.45C150.87 107.75 101.77 107.66 71.39 90.25C56.13 81.51 48.53 70.06 48.5 58.64C48.5 55.64 48.5 55.33 48.5 55.33C48.5 55.33 64.66 31.07 71 27.42C101.2 10.12 150.3 10.21 180.68 27.61C186.37 30.87 203.57 55.33 203.57 55.33V59.24C203.61 70.55 196.09 81.84 181.07 90.45Z" fill="var(--fill-0, #E7F0F4)"/>
<path id="Vector_2" d="M198.25 53.25C197.5 66.75 180.75 94.5 130 96.5V103.32C148.59 102.85 166.91 98.56 181.07 90.45C196.07 81.84 203.61 70.55 203.61 59.24V55.33C201.889 54.4784 200.095 53.7823 198.25 53.25V53.25Z" fill="var(--fill-0, #CCD9E0)"/>
<path id="Vector_3" d="M71.39 87.05C101.77 104.46 150.87 104.54 181.07 87.25C182.07 86.69 182.97 86.13 183.87 85.55C182.35 78.37 176.76 71.41 167.12 65.88C144.3 52.81 107.41 52.74 84.74 65.74C75.25 71.17 69.74 78.03 68.24 85.13C69.2533 85.7833 70.3033 86.4233 71.39 87.05Z" fill="var(--fill-0, #6F8FA1)"/>
<path id="Vector_4" d="M182.12 80.53C179.49 75.17 174.49 70.11 167.12 65.88C144.3 52.81 107.41 52.74 84.74 65.74C78 69.61 73.24 74.2 70.53 79.09" stroke="var(--stroke-0, #8CA9B8)" stroke-width="0.66" stroke-linecap="round" stroke-linejoin="round"/>
<path id="Vector_5" d="M70.92 84.79L75.28 80.61C63.18 68 66.39 51.87 85 41.23C107.56 28.31 144.25 28.38 167 41.38C185.63 52.05 189 68.12 177.2 80.69L182.44 84.12C197.44 69.75 194.01 50.8 172.29 38.35C146.65 23.66 105.21 23.59 79.73 38.19C57.61 50.81 54.72 70.26 70.92 84.79Z" fill="var(--fill-0, white)"/>
<path id="Vector_6" d="M70.92 84.79L75.28 80.61C63.18 68 66.39 51.87 85 41.23C107.56 28.31 144.25 28.38 167 41.38C185.63 52.05 189 68.12 177.2 80.69L182.44 84.12C197.44 69.75 194.01 50.8 172.29 38.35C146.65 23.66 105.21 23.59 79.73 38.19C57.61 50.81 54.72 70.26 70.92 84.79Z" stroke="var(--stroke-0, #8CA9B8)" stroke-width="0.66" stroke-linecap="round" stroke-linejoin="round"/>
<path id="Vector_7" d="M180.72 24.41C150.34 7 101.24 6.92 71 24.21C40.76 41.5 41 69.64 71.35 87.05C101.7 104.46 150.83 104.54 181.03 87.25C211.23 69.96 211.1 41.82 180.72 24.41ZM172.72 82.46C147.11 97.14 105.45 97.06 79.72 82.3C53.99 67.54 53.78 43.67 79.39 29C105 14.33 146.66 14.4 172.39 29.16C198.12 43.92 198.33 67.79 172.72 82.46Z" fill="var(--fill-0, white)"/>
<path id="Vector_8" d="M125.57 11.3C145.5 11.3 165.47 15.67 180.72 24.41C211.1 41.82 211.26 69.95 181.07 87.25C166.07 95.86 146.31 100.16 126.54 100.16C106.61 100.16 86.64 95.79 71.39 87.05C41 69.64 40.85 41.51 71 24.21C86 15.6 105.76 11.3 125.53 11.3H125.57ZM126.43 93.42C143.19 93.42 159.93 89.77 172.68 82.42C198.29 67.75 198.16 43.89 172.39 29.12C159.49 21.75 142.55 18 125.64 18C108.88 18 92.14 21.65 79.39 29C53.78 43.67 53.91 67.53 79.68 82.3C92.62 89.71 109.56 93.42 126.47 93.42H126.43ZM125.57 10.64C104.83 10.64 85.35 15.26 70.72 23.64C56.09 32.02 47.84 43.39 47.84 55.45C47.84 67.51 56.09 79 71.06 87.62C86.03 96.24 105.62 100.82 126.54 100.82C147.28 100.82 166.76 96.2 181.39 87.82C196.02 79.44 204.27 68.07 204.27 56C204.27 43.93 196 32.42 181.05 23.84C166.1 15.26 146.49 10.64 125.57 10.64V10.64ZM126.47 92.76C108.93 92.76 92.47 88.84 80.01 81.76C67.55 74.68 60.93 65.36 60.93 55.49C60.93 45.62 67.6 36.49 79.72 29.57C91.84 22.65 108.26 18.7 125.64 18.7C143.18 18.7 159.64 22.62 172.1 29.7C184.56 36.78 191.18 46.1 191.18 56C191.18 65.9 184.51 75 172.39 81.92C160.27 88.84 143.85 92.79 126.47 92.79V92.76Z" fill="var(--fill-0, #8CA9B8)"/>
<path id="Vector_9" d="M125.57 11.3C145.5 11.3 165.47 15.67 180.72 24.41C195.67 32.97 203.29 44.13 203.59 55.31C203.59 55.54 203.59 56.56 203.59 59.24C203.59 70.55 196.07 81.84 181.05 90.45C166.03 99.06 146.29 103.36 126.52 103.36C106.59 103.36 86.62 98.99 71.37 90.25C56.12 81.51 48.53 70.06 48.5 58.64C48.5 55.64 48.5 55.33 48.5 55.33C48.56 44 56.06 32.8 71 24.21C85.94 15.62 105.8 11.3 125.57 11.3ZM125.57 10.05C104.73 10.05 85.15 14.69 70.42 23.13C55.69 31.57 47.42 42.96 47.26 55.13V55.32C47.26 55.32 47.26 55.71 47.26 58.65C47.26 71.06 55.64 82.65 70.78 91.35C85.72 99.91 105.53 104.62 126.55 104.62C147.39 104.62 166.97 99.98 181.7 91.54C196.64 82.98 204.87 71.54 204.87 59.25C204.87 57.17 204.87 56.08 204.87 55.59V55.32C204.54 43.18 196.2 31.83 181.37 23.32C166.54 14.81 146.62 10.04 125.6 10.04L125.57 10.05Z" fill="var(--fill-0, #5A7D91)"/>
<path id="Vector_10" opacity="0.3" d="M93 88.38C93 88.38 86.62 90.25 76 93C64.2172 92.8993 52.5448 90.7191 41.52 86.56C40.52 84.42 39.38 81.92 39.38 81.92L93 85.25V88.38Z" fill="var(--fill-0, #5A7D91)"/>
<path id="Vector_11" d="M123.25 80.21C98.14 94.71 57.3 94.64 32 80.05C19.29 72.71 13 63.05 13 53.5V46H142V54C142 63.5 135.77 73 123.25 80.21Z" fill="var(--fill-0, #E7F0F4)"/>
<path id="Vector_12" d="M81 91C96.39 90.58 111.53 87 123.25 80.22C135.77 73 142 63.5 142 54V46H81V91Z" fill="var(--fill-0, #CBD9DF)"/>
<path id="Vector_13" d="M141.998 45.5849C142.109 25.0181 113.322 8.1892 77.7001 7.99646C42.0783 7.80373 13.1109 24.3202 12.9996 44.8869C12.8883 65.4537 41.6753 82.2826 77.2972 82.4754C112.919 82.6681 141.886 66.1517 141.998 45.5849Z" fill="var(--fill-0, white)"/>
<path id="Vector_14" d="M77.1 8C93.67 8 110.28 11.67 123 19C148.26 33.59 148.39 57.17 123.28 71.66C110.78 78.88 94.37 82.49 77.94 82.49C61.51 82.49 44.72 78.81 32 71.49C6.77 56.9 6.64 33.32 31.75 18.82C44.25 11.61 60.66 8 77.1 8ZM77.1 7.34C59.83 7.34 43.61 11.22 31.42 18.25C19.23 25.28 12.34 34.86 12.34 45C12.34 55.14 19.22 64.85 31.7 72.06C44.18 79.27 60.49 83.14 77.91 83.14C95.17 83.14 111.39 79.26 123.58 72.23C135.77 65.2 142.66 55.62 142.66 45.47C142.66 35.32 135.78 25.63 123.3 18.47C110.82 11.31 94.52 7.34 77.1 7.34Z" fill="var(--fill-0, #8CA9B8)"/>
<path id="Vector_15" d="M77.1 8C93.67 8 110.28 11.67 123 19C135.91 26.46 142.26 36.27 142 46C142 46 142 51.5 142 54C142 63.5 135.77 73 123.25 80.21C110.73 87.42 94.35 91 77.91 91C61.47 91 44.72 87.37 32 80.05C19.28 72.73 13 63.05 13 53.5C13 51 13 46 13 46C12.55 36.18 18.79 26.3 31.73 18.82C44.25 11.61 60.65 8 77.1 8ZM77.1 6.75C59.73 6.75 43.4 10.65 31.1 17.75C18.16 25.22 11.29 35.27 11.77 46C11.77 46.42 11.77 51.08 11.77 53.47C11.77 63.97 18.77 73.78 31.43 81.1C43.89 88.3 60.43 92.26 77.93 92.26C95.29 92.26 111.62 88.36 123.93 81.26C136.42 74.04 143.3 64.35 143.3 53.96C143.3 51.46 143.3 45.96 143.3 45.96C143.56 35.32 136.58 25.33 123.65 17.87C111.19 10.67 94.65 6.71 77.16 6.71L77.1 6.75Z" fill="var(--fill-0, #5A7D91)"/>
<path id="Vector_16" d="M97.56 22L95.97 21.08L90.13 24.46L91.71 25.37L97.56 22Z" fill="var(--fill-0, #CCD9E0)"/>
<path id="Vector_17" d="M93.26 19.51L91.67 18.6L85.83 21.97L87.41 22.89L93.26 19.51Z" fill="var(--fill-0, #CCD9E0)"/>
<path id="Vector_18" d="M79.7 16.62L78.13 17.53L84.02 20.93L85.59 20.02L79.7 16.62Z" fill="var(--fill-0, #CCD9E0)"/>
<path id="Vector_19" d="M116.32 28.93L114.75 29.84L108.86 26.44L110.44 25.54L116.32 28.93Z" fill="var(--fill-0, #CCD9E0)"/>
<path id="Vector_20" d="M112.95 30.88L111.36 29.97L105.52 33.34L107.1 34.26L112.95 30.88Z" fill="var(--fill-0, #CCD9E0)"/>
<path id="Vector_21" d="M108.65 28.4L107.06 27.48L101.22 30.86L102.8 31.77L108.65 28.4Z" fill="var(--fill-0, #CCD9E0)"/>
<path id="Vector_22" d="M99.37 23.04L97.8 23.95L103.68 27.35L105.25 26.44L99.37 23.04Z" fill="var(--fill-0, #CCD9E0)"/>
<path id="Vector_23" d="M95.1 25.51L93.52 26.42L99.41 29.81L100.98 28.91L95.1 25.51Z" fill="var(--fill-0, #CCD9E0)"/>
<path id="Vector_24" d="M124.04 37.28L122.46 36.37L116.61 39.75L118.19 40.66L124.04 37.28Z" fill="var(--fill-0, #CCD9E0)"/>
<path id="Vector_25" d="M114.76 31.93L113.19 32.84L119.07 36.23L120.64 35.32L114.76 31.93Z" fill="var(--fill-0, #CCD9E0)"/>
<path id="Vector_26" d="M110.49 34.39L108.91 35.3L114.8 38.7L116.37 37.79L110.49 34.39Z" fill="var(--fill-0, #CCD9E0)"/>
<path id="Vector_27" d="M70.25 19.99L68.67 20.9L62.79 17.5L64.36 16.59L70.25 19.99Z" fill="var(--fill-0, #CCD9E0)"/>
<path id="Vector_28" d="M66.87 21.94L65.29 21.02L59.44 24.4L61.02 25.32L66.87 21.94Z" fill="var(--fill-0, #CCD9E0)"/>
<path id="Vector_29" d="M62.57 19.46L60.99 18.54L55.14 21.92L56.72 22.83L62.57 19.46Z" fill="var(--fill-0, #CCD9E0)"/>
<path id="Vector_30" d="M76.33 18.57L77.92 19.48L72.07 22.86L70.48 21.95L76.33 18.57Z" fill="var(--fill-0, #CCD9E0)"/>
<path id="Vector_31" d="M80.63 21.05L82.22 21.97L76.37 25.34L74.78 24.43L80.63 21.05Z" fill="var(--fill-0, #CCD9E0)"/>
<path id="Vector_32" d="M89.91 26.41L88.34 27.32L82.45 23.92L84.03 23.01L89.91 26.41Z" fill="var(--fill-0, #CCD9E0)"/>
<path id="Vector_33" d="M85.64 28.88L84.06 29.79L78.18 26.39L79.75 25.48L85.64 28.88Z" fill="var(--fill-0, #CCD9E0)"/>
<path id="Vector_34" d="M82.26 30.82L80.68 29.91L74.83 33.29L76.42 34.2L82.26 30.82Z" fill="var(--fill-0, #CCD9E0)"/>
<path id="Vector_35" d="M77.96 28.34L76.38 27.43L70.53 30.8L72.11 31.72L77.96 28.34Z" fill="var(--fill-0, #CCD9E0)"/>
<path id="Vector_36" d="M68.68 22.98L67.11 23.89L72.99 27.29L74.57 26.38L68.68 22.98Z" fill="var(--fill-0, #CCD9E0)"/>
<path id="Vector_37" d="M64.41 25.45L62.84 26.36L68.72 29.76L70.29 28.85L64.41 25.45Z" fill="var(--fill-0, #CCD9E0)"/>
<path id="Vector_38" d="M91.72 27.45L93.31 28.37L87.46 31.75L85.87 30.83L91.72 27.45Z" fill="var(--fill-0, #CCD9E0)"/>
<path id="Vector_39" d="M96.02 29.94L97.61 30.85L91.76 34.23L90.17 33.31L96.02 29.94Z" fill="var(--fill-0, #CCD9E0)"/>
<path id="Vector_40" d="M105.3 35.3L103.73 36.2L97.84 32.81L99.42 31.9L105.3 35.3Z" fill="var(--fill-0, #CCD9E0)"/>
<path id="Vector_41" d="M101.03 37.76L99.45 38.67L93.57 35.27L95.14 34.37L101.03 37.76Z" fill="var(--fill-0, #CCD9E0)"/>
<path id="Vector_42" d="M97.66 39.71L96.07 38.8L90.22 42.17L91.81 43.09L97.66 39.71Z" fill="var(--fill-0, #CCD9E0)"/>
<path id="Vector_43" d="M93.35 37.23L91.77 36.31L85.92 39.69L87.51 40.6L93.35 37.23Z" fill="var(--fill-0, #CCD9E0)"/>
<path id="Vector_44" d="M84.07 31.87L82.5 32.78L88.38 36.18L89.96 35.27L84.07 31.87Z" fill="var(--fill-0, #CCD9E0)"/>
<path id="Vector_45" d="M79.8 34.34L78.23 35.25L84.11 38.65L85.69 37.74L79.8 34.34Z" fill="var(--fill-0, #CCD9E0)"/>
<path id="Vector_46" d="M107.11 36.34L108.7 37.26L102.85 40.63L101.27 39.72L107.11 36.34Z" fill="var(--fill-0, #CCD9E0)"/>
<path id="Vector_47" d="M111.41 38.82L113 39.74L107.15 43.12L105.56 42.2L111.41 38.82Z" fill="var(--fill-0, #CCD9E0)"/>
<path id="Vector_48" d="M120.69 44.18L119.12 45.09L113.23 41.69L114.81 40.78L120.69 44.18Z" fill="var(--fill-0, #CCD9E0)"/>
<path id="Vector_49" d="M116.42 46.65L114.84 47.56L108.96 44.16L110.53 43.25L116.42 46.65Z" fill="var(--fill-0, #CCD9E0)"/>
<path id="Vector_50" d="M113.05 48.6L111.46 47.68L105.61 51.06L107.2 51.97L113.05 48.6Z" fill="var(--fill-0, #CCD9E0)"/>
<path id="Vector_51" d="M108.75 46.12L107.16 45.2L101.31 48.58L102.9 49.49L108.75 46.12Z" fill="var(--fill-0, #CCD9E0)"/>
<path id="Vector_52" d="M99.47 40.76L97.89 41.67L103.78 45.06L105.35 44.16L99.47 40.76Z" fill="var(--fill-0, #CCD9E0)"/>
<path id="Vector_53" d="M95.19 43.22L93.62 44.13L99.5 47.53L101.08 46.62L95.19 43.22Z" fill="var(--fill-0, #CCD9E0)"/>
<path id="Vector_54" d="M122.5 45.23L124.09 46.14L118.24 49.52L116.66 48.6L122.5 45.23Z" fill="var(--fill-0, #CCD9E0)"/>
<path id="Vector_55" d="M114.86 49.64L113.28 50.55L119.17 53.95L120.74 53.04L114.86 49.64Z" fill="var(--fill-0, #CCD9E0)"/>
<path id="Vector_56" d="M110.58 52.11L109.01 53.02L114.89 56.42L116.47 55.51L110.58 52.11Z" fill="var(--fill-0, #CCD9E0)"/>
<path id="Vector_57" d="M59.22 26.35L57.65 27.26L51.77 23.87L53.34 22.96L59.22 26.35Z" fill="var(--fill-0, #CCD9E0)"/>
<path id="Vector_58" d="M54.95 28.82L53.38 29.73L47.49 26.33L49.07 25.42L54.95 28.82Z" fill="var(--fill-0, #CCD9E0)"/>
<path id="Vector_59" d="M51.58 30.77L49.99 29.86L44.14 33.23L45.73 34.15L51.58 30.77Z" fill="var(--fill-0, #CCD9E0)"/>
<path id="Vector_60" d="M47.28 28.29L45.69 27.37L39.84 30.75L41.43 31.66L47.28 28.29Z" fill="var(--fill-0, #CCD9E0)"/>
<path id="Vector_61" d="M61.03 27.4L62.62 28.32L56.77 31.69L55.19 30.78L61.03 27.4Z" fill="var(--fill-0, #CCD9E0)"/>
<path id="Vector_62" d="M65.34 29.88L66.92 30.8L61.07 34.17L59.49 33.26L65.34 29.88Z" fill="var(--fill-0, #CCD9E0)"/>
<path id="Vector_63" d="M74.62 35.24L73.04 36.15L67.16 32.75L68.73 31.84L74.62 35.24Z" fill="var(--fill-0, #CCD9E0)"/>
<path id="Vector_64" d="M70.34 37.71L68.77 38.62L62.88 35.22L64.46 34.31L70.34 37.71Z" fill="var(--fill-0, #CCD9E0)"/>
<path id="Vector_65" d="M66.97 39.66L65.38 38.74L59.54 42.12L61.12 43.03L66.97 39.66Z" fill="var(--fill-0, #CCD9E0)"/>
<path id="Vector_66" d="M62.67 37.17L61.08 36.26L55.23 39.63L56.82 40.55L62.67 37.17Z" fill="var(--fill-0, #CCD9E0)"/>
<path id="Vector_67" d="M53.39 31.82L51.81 32.72L57.7 36.12L59.27 35.21L53.39 31.82Z" fill="var(--fill-0, #CCD9E0)"/>
<path id="Vector_68" d="M49.11 34.28L47.54 35.19L53.42 38.59L55 37.68L49.11 34.28Z" fill="var(--fill-0, #CCD9E0)"/>
<path id="Vector_69" d="M76.43 36.29L78.01 37.2L72.16 40.58L70.58 39.66L76.43 36.29Z" fill="var(--fill-0, #CCD9E0)"/>
<path id="Vector_70" d="M80.73 38.77L82.31 39.68L76.46 43.06L74.88 42.15L80.73 38.77Z" fill="var(--fill-0, #CCD9E0)"/>
<path id="Vector_71" d="M90.01 44.13L88.43 45.04L82.55 41.64L84.12 40.73L90.01 44.13Z" fill="var(--fill-0, #CCD9E0)"/>
<path id="Vector_72" d="M85.73 46.59L84.16 47.5L78.27 44.11L79.85 43.2L85.73 46.59Z" fill="var(--fill-0, #CCD9E0)"/>
<path id="Vector_73" d="M82.36 48.54L80.78 47.63L74.93 51L76.51 51.92L82.36 48.54Z" fill="var(--fill-0, #CCD9E0)"/>
<path id="Vector_74" d="M78.06 46.06L76.47 45.15L70.63 48.52L72.21 49.44L78.06 46.06Z" fill="var(--fill-0, #CCD9E0)"/>
<path id="Vector_75" d="M68.78 40.7L67.2 41.61L73.09 45.01L74.66 44.1L68.78 40.7Z" fill="var(--fill-0, #CCD9E0)"/>
<path id="Vector_76" d="M64.5 43.17L62.93 44.08L68.82 47.48L70.39 46.57L64.5 43.17Z" fill="var(--fill-0, #CCD9E0)"/>
<path id="Vector_77" d="M91.82 45.17L93.4 46.09L87.55 49.46L85.97 48.55L91.82 45.17Z" fill="var(--fill-0, #CCD9E0)"/>
<path id="Vector_78" d="M96.12 47.66L97.7 48.57L91.85 51.95L90.27 51.03L96.12 47.66Z" fill="var(--fill-0, #CCD9E0)"/>
<path id="Vector_79" d="M105.4 53.01L103.82 53.92L97.94 50.52L99.51 49.62L105.4 53.01Z" fill="var(--fill-0, #CCD9E0)"/>
<path id="Vector_80" d="M101.13 55.48L99.55 56.39L93.67 52.99L95.24 52.08L101.13 55.48Z" fill="var(--fill-0, #CCD9E0)"/>
<path id="Vector_81" d="M97.75 57.43L96.17 56.51L90.32 59.89L91.9 60.8L97.75 57.43Z" fill="var(--fill-0, #CCD9E0)"/>
<path id="Vector_82" d="M93.45 54.95L91.87 54.03L86.02 57.41L87.6 58.32L93.45 54.95Z" fill="var(--fill-0, #CCD9E0)"/>
<path id="Vector_83" d="M84.17 49.59L82.6 50.5L88.48 53.89L90.06 52.98L84.17 49.59Z" fill="var(--fill-0, #CCD9E0)"/>
<path id="Vector_84" d="M79.9 52.05L78.32 52.96L84.21 56.36L85.78 55.45L79.9 52.05Z" fill="var(--fill-0, #CCD9E0)"/>
<path id="Vector_85" d="M107.21 54.06L108.79 54.97L102.94 58.35L101.36 57.44L107.21 54.06Z" fill="var(--fill-0, #CCD9E0)"/>
<path id="Vector_86" d="M111.51 56.54L113.09 57.46L107.25 60.83L105.66 59.92L111.51 56.54Z" fill="var(--fill-0, #CCD9E0)"/>
<path id="Vector_87" d="M99.56 58.47L97.99 59.38L103.87 62.78L105.45 61.87L99.56 58.47Z" fill="var(--fill-0, #CCD9E0)"/>
<path id="Vector_88" d="M95.29 60.94L93.71 61.85L99.6 65.25L101.17 64.34L95.29 60.94Z" fill="var(--fill-0, #CCD9E0)"/>
<path id="Vector_89" d="M43.93 35.19L42.35 36.09L36.47 32.7L38.04 31.79L43.93 35.19Z" fill="var(--fill-0, #CCD9E0)"/>
<path id="Vector_90" d="M39.66 37.65L38.08 38.56L32.2 35.16L33.77 34.26L39.66 37.65Z" fill="var(--fill-0, #CCD9E0)"/>
<path id="Vector_91" d="M36.28 39.6L34.7 38.69L28.85 42.06L30.43 42.98L36.28 39.6Z" fill="var(--fill-0, #CCD9E0)"/>
<path id="Vector_92" d="M45.74 36.23L47.32 37.15L41.48 40.52L39.89 39.61L45.74 36.23Z" fill="var(--fill-0, #CCD9E0)"/>
<path id="Vector_93" d="M50.04 38.71L51.63 39.63L45.78 43.01L44.19 42.09L50.04 38.71Z" fill="var(--fill-0, #CCD9E0)"/>
<path id="Vector_94" d="M59.32 44.07L57.75 44.98L51.86 41.58L53.44 40.67L59.32 44.07Z" fill="var(--fill-0, #CCD9E0)"/>
<path id="Vector_95" d="M55.05 46.54L53.47 47.45L47.59 44.05L49.16 43.14L55.05 46.54Z" fill="var(--fill-0, #CCD9E0)"/>
<path id="Vector_96" d="M51.67 48.49L50.09 47.57L44.24 50.95L45.83 51.86L51.67 48.49Z" fill="var(--fill-0, #CCD9E0)"/>
<path id="Vector_97" d="M47.37 46L45.79 45.09L39.94 48.47L41.52 49.38L47.37 46Z" fill="var(--fill-0, #CCD9E0)"/>
<path id="Vector_98" d="M38.09 40.65L36.52 41.55L42.4 44.95L43.98 44.04L38.09 40.65Z" fill="var(--fill-0, #CCD9E0)"/>
<path id="Vector_99" d="M33.82 43.11L32.24 44.02L38.13 47.42L39.7 46.51L33.82 43.11Z" fill="var(--fill-0, #CCD9E0)"/>
<path id="Vector_100" d="M61.13 45.12L62.72 46.03L56.87 49.41L55.28 48.49L61.13 45.12Z" fill="var(--fill-0, #CCD9E0)"/>
<path id="Vector_101" d="M65.43 47.6L67.02 48.51L61.17 51.89L59.58 50.98L65.43 47.6Z" fill="var(--fill-0, #CCD9E0)"/>
<path id="Vector_102" d="M74.71 52.96L73.14 53.87L67.25 50.47L68.83 49.56L74.71 52.96Z" fill="var(--fill-0, #CCD9E0)"/>
<path id="Vector_103" d="M70.44 55.42L68.86 56.33L62.98 52.94L64.55 52.03L70.44 55.42Z" fill="var(--fill-0, #CCD9E0)"/>
<path id="Vector_104" d="M67.06 57.37L65.48 56.46L59.63 59.84L61.22 60.75L67.06 57.37Z" fill="var(--fill-0, #CCD9E0)"/>
<path id="Vector_105" d="M62.76 54.89L61.18 53.98L55.33 57.35L56.92 58.27L62.76 54.89Z" fill="var(--fill-0, #CCD9E0)"/>
<path id="Vector_106" d="M53.48 49.53L51.91 50.44L57.79 53.84L59.37 52.93L53.48 49.53Z" fill="var(--fill-0, #CCD9E0)"/>
<path id="Vector_107" d="M49.21 52L47.63 52.91L53.52 56.31L55.09 55.4L49.21 52Z" fill="var(--fill-0, #CCD9E0)"/>
<path id="Vector_108" d="M76.52 54L78.11 54.92L72.26 58.29L70.67 57.38L76.52 54Z" fill="var(--fill-0, #CCD9E0)"/>
<path id="Vector_109" d="M80.82 56.49L82.41 57.4L76.56 60.78L74.97 59.86L80.82 56.49Z" fill="var(--fill-0, #CCD9E0)"/>
<path id="Vector_110" d="M90.1 61.84L88.53 62.75L82.64 59.35L84.22 58.45L90.1 61.84Z" fill="var(--fill-0, #CCD9E0)"/>
<path id="Vector_111" d="M85.83 64.31L84.25 65.22L78.37 61.82L79.94 60.91L85.83 64.31Z" fill="var(--fill-0, #CCD9E0)"/>
<path id="Vector_112" d="M82.45 66.26L80.87 65.34L75.02 68.72L76.61 69.64L82.45 66.26Z" fill="var(--fill-0, #CCD9E0)"/>
<path id="Vector_113" d="M78.16 63.78L76.57 62.86L70.72 66.24L72.31 67.15L78.16 63.78Z" fill="var(--fill-0, #CCD9E0)"/>
<path id="Vector_114" d="M68.88 58.42L67.3 59.33L73.19 62.73L74.76 61.82L68.88 58.42Z" fill="var(--fill-0, #CCD9E0)"/>
<path id="Vector_115" d="M64.6 60.89L63.03 61.8L68.91 65.19L70.49 64.28L64.6 60.89Z" fill="var(--fill-0, #CCD9E0)"/>
<path id="Vector_116" d="M91.91 62.89L93.5 63.8L87.65 67.18L86.07 66.27L91.91 62.89Z" fill="var(--fill-0, #CCD9E0)"/>
<path id="Vector_117" d="M96.21 65.37L97.8 66.29L91.95 69.66L90.37 68.75L96.21 65.37Z" fill="var(--fill-0, #CCD9E0)"/>
<path id="Vector_118" d="M84.27 67.3L82.69 68.21L88.58 71.61L90.15 70.7L84.27 67.3Z" fill="var(--fill-0, #CCD9E0)"/>
<path id="Vector_119" d="M34.74 47.54L36.33 48.46L30.48 51.84L28.9 50.92L34.74 47.54Z" fill="var(--fill-0, #CCD9E0)"/>
<path id="Vector_120" d="M44.02 52.9L42.45 53.81L36.57 50.41L38.14 49.5L44.02 52.9Z" fill="var(--fill-0, #CCD9E0)"/>
<path id="Vector_121" d="M39.75 55.37L38.18 56.28L32.29 52.88L33.87 51.97L39.75 55.37Z" fill="var(--fill-0, #CCD9E0)"/>
<path id="Vector_122" d="M45.84 53.95L47.42 54.86L41.57 58.24L39.99 57.32L45.84 53.95Z" fill="var(--fill-0, #CCD9E0)"/>
<path id="Vector_123" d="M50.14 56.43L51.72 57.34L45.87 60.72L44.29 59.81L50.14 56.43Z" fill="var(--fill-0, #CCD9E0)"/>
<path id="Vector_124" d="M59.42 61.79L57.84 62.7L51.96 59.3L53.53 58.39L59.42 61.79Z" fill="var(--fill-0, #CCD9E0)"/>
<path id="Vector_125" d="M55.14 64.26L53.57 65.17L47.68 61.77L49.26 60.86L55.14 64.26Z" fill="var(--fill-0, #CCD9E0)"/>
<path id="Vector_126" d="M38.19 58.36L36.61 59.27L42.5 62.67L44.07 61.76L38.19 58.36Z" fill="var(--fill-0, #CCD9E0)"/>
<path id="Vector_127" d="M61.23 62.83L62.81 63.75L56.96 67.13L55.38 66.21L61.23 62.83Z" fill="var(--fill-0, #CCD9E0)"/>
<path id="Vector_128" d="M65.53 65.32L67.11 66.23L61.26 69.61L59.68 68.69L65.53 65.32Z" fill="var(--fill-0, #CCD9E0)"/>
<path id="Vector_129" d="M74.81 70.67L73.23 71.58L67.35 68.19L68.92 67.28L74.81 70.67Z" fill="var(--fill-0, #CCD9E0)"/>
<path id="Vector_130" d="M76.32 16.48L79.11 14.87C78.11 14.87 77.11 14.87 76.03 14.87L74.73 15.62L76.32 16.48Z" fill="var(--fill-0, #CCD9E0)"/>
<path id="Vector_131" d="M76.32 16.48L79.11 14.87C78.11 14.87 77.11 14.87 76.03 14.87L74.73 15.62L76.32 16.48Z" fill="var(--fill-0, #CCD9E0)"/>
<path id="Vector_132" d="M92.05 16.29L90.91 16.08L91.66 16.51L92.05 16.29Z" fill="var(--fill-0, #CCD9E0)"/>
<path id="Vector_133" d="M92.05 16.29L90.91 16.08L91.66 16.51L92.05 16.29Z" fill="var(--fill-0, #CCD9E0)"/>
<path id="Vector_134" d="M99.36 21L100.93 20.09L95.84 17.15L94.71 16.88L93.47 17.6L99.36 21Z" fill="var(--fill-0, #CCD9E0)"/>
<path id="Vector_135" d="M99.36 21L100.93 20.09L95.84 17.15L94.71 16.88L93.47 17.6L99.36 21Z" fill="var(--fill-0, #CCD9E0)"/>
<path id="Vector_136" d="M88.29 18.46L89.86 17.55L86.12 15.39C84.9 15.25 83.68 15.13 82.44 15.04L88.29 18.46Z" fill="var(--fill-0, #CCD9E0)"/>
<path id="Vector_137" d="M88.29 18.46L89.86 17.55L86.12 15.39C84.9 15.25 83.68 15.13 82.44 15.04L88.29 18.46Z" fill="var(--fill-0, #CCD9E0)"/>
<path id="Vector_138" d="M102.75 22.92L106.64 20.67C106.03 20.41 105.42 20.15 104.79 19.91L101.17 22L102.75 22.92Z" fill="var(--fill-0, #CCD9E0)"/>
<path id="Vector_139" d="M102.75 22.92L106.64 20.67C106.03 20.41 105.42 20.15 104.79 19.91L101.17 22L102.75 22.92Z" fill="var(--fill-0, #CCD9E0)"/>
<path id="Vector_140" d="M107.05 25.4L111.31 22.94C110.76 22.65 110.21 22.35 109.65 22.07L105.47 24.48L107.05 25.4Z" fill="var(--fill-0, #CCD9E0)"/>
<path id="Vector_141" d="M107.05 25.4L111.31 22.94C110.76 22.65 110.21 22.35 109.65 22.07L105.47 24.48L107.05 25.4Z" fill="var(--fill-0, #CCD9E0)"/>
<path id="Vector_142" d="M118.14 31.8L121 30.18C120.63 29.79 120.24 29.4 119.84 29.02L116.61 30.89L118.14 31.8Z" fill="var(--fill-0, #CCD9E0)"/>
<path id="Vector_143" d="M118.14 31.8L121 30.18C120.63 29.79 120.24 29.4 119.84 29.02L116.61 30.89L118.14 31.8Z" fill="var(--fill-0, #CCD9E0)"/>
<path id="Vector_144" d="M122.44 34.28L123.69 33.56C123.4 33.13 123.09 32.7 122.76 32.28L120.86 33.37L122.44 34.28Z" fill="var(--fill-0, #CCD9E0)"/>
<path id="Vector_145" d="M122.44 34.28L123.69 33.56C123.4 33.13 123.09 32.7 122.76 32.28L120.86 33.37L122.44 34.28Z" fill="var(--fill-0, #CCD9E0)"/>
<path id="Vector_146" d="M125 35.78C124.88 35.55 124.75 35.33 124.62 35.1L124.23 35.33L125 35.78Z" fill="var(--fill-0, #CCD9E0)"/>
<path id="Vector_147" d="M125 35.78C124.88 35.55 124.75 35.33 124.62 35.1L124.23 35.33L125 35.78Z" fill="var(--fill-0, #CCD9E0)"/>
<path id="Vector_148" d="M122.49 43.14L126.82 40.65C126.7 40.11 126.56 39.59 126.39 39.06L120.91 42.23L122.49 43.14Z" fill="var(--fill-0, #CCD9E0)"/>
<path id="Vector_149" d="M122.49 43.14L126.82 40.65C126.7 40.11 126.56 39.59 126.39 39.06L120.91 42.23L122.49 43.14Z" fill="var(--fill-0, #CCD9E0)"/>
<path id="Vector_150" d="M124.3 44.19L127.14 45.83C127.195 45.2384 127.215 44.644 127.2 44.05L125.88 43.28L124.3 44.19Z" fill="var(--fill-0, #CCD9E0)"/>
<path id="Vector_151" d="M124.3 44.19L127.14 45.83C127.195 45.2384 127.215 44.644 127.2 44.05L125.88 43.28L124.3 44.19Z" fill="var(--fill-0, #CCD9E0)"/>
<path id="Vector_152" d="M61.7 16L60.58 16.19L60.98 16.42L61.7 16Z" fill="var(--fill-0, #CCD9E0)"/>
<path id="Vector_153" d="M61.7 16L60.58 16.19L60.98 16.42L61.7 16Z" fill="var(--fill-0, #CCD9E0)"/>
<path id="Vector_154" d="M74.52 17.52L70.19 15C69.27 15.06 68.36 15.13 67.44 15.23L73 18.43L74.52 17.52Z" fill="var(--fill-0, #CCD9E0)"/>
<path id="Vector_155" d="M74.52 17.52L70.19 15C69.27 15.06 68.36 15.13 67.44 15.23L73 18.43L74.52 17.52Z" fill="var(--fill-0, #CCD9E0)"/>
<path id="Vector_156" d="M59.18 17.5L57.93 16.78C57.18 16.94 56.44 17.12 55.71 17.31L57.6 18.41L59.18 17.5Z" fill="var(--fill-0, #CCD9E0)"/>
<path id="Vector_157" d="M59.18 17.5L57.93 16.78C57.18 16.94 56.44 17.12 55.71 17.31L57.6 18.41L59.18 17.5Z" fill="var(--fill-0, #CCD9E0)"/>
<path id="Vector_158" d="M121 51.09L122.58 52L126.34 49.83C126.566 49.1454 126.75 48.4474 126.89 47.74L121 51.09Z" fill="var(--fill-0, #CCD9E0)"/>
<path id="Vector_159" d="M121 51.09L122.58 52L126.34 49.83C126.566 49.1454 126.75 48.4474 126.89 47.74L121 51.09Z" fill="var(--fill-0, #CCD9E0)"/>
<path id="Vector_160" d="M124.77 53.29C124.89 53.06 125.01 52.83 125.12 52.6L124.35 53.05L124.77 53.29Z" fill="var(--fill-0, #CCD9E0)"/>
<path id="Vector_161" d="M124.77 53.29C124.89 53.06 125.01 52.83 125.12 52.6L124.35 53.05L124.77 53.29Z" fill="var(--fill-0, #CCD9E0)"/>
<path id="Vector_162" d="M116.7 57.46L118.29 58.38L123.4 55.38C123.547 55.18 123.687 54.98 123.82 54.78L122.55 54.05L116.7 57.46Z" fill="var(--fill-0, #CCD9E0)"/>
<path id="Vector_163" d="M116.7 57.46L118.29 58.38L123.4 55.38C123.547 55.18 123.687 54.98 123.82 54.78L122.55 54.05L116.7 57.46Z" fill="var(--fill-0, #CCD9E0)"/>
<path id="Vector_164" d="M113.33 59.41L116.33 61.14C116.87 61.14 117.41 61.14 117.96 61.14L118.57 60.62L114.9 58.5L113.33 59.41Z" fill="var(--fill-0, #CCD9E0)"/>
<path id="Vector_165" d="M113.33 59.41L116.33 61.14C116.87 61.14 117.41 61.14 117.96 61.14L118.57 60.62L114.9 58.5L113.33 59.41Z" fill="var(--fill-0, #CCD9E0)"/>
<path id="Vector_166" d="M109.06 61.88L110.14 62.5C110.765 62.2188 111.41 61.9848 112.07 61.8L110.63 61L109.06 61.88Z" fill="var(--fill-0, #CCD9E0)"/>
<path id="Vector_167" d="M109.06 61.88L110.14 62.5C110.765 62.2188 111.41 61.9848 112.07 61.8L110.63 61L109.06 61.88Z" fill="var(--fill-0, #CCD9E0)"/>
<path id="Vector_168" d="M101.41 66.29L102.99 67.21L106.86 65C107.277 64.4472 107.776 63.9616 108.34 63.56L107.26 62.94L101.41 66.29Z" fill="var(--fill-0, #CCD9E0)"/>
<path id="Vector_169" d="M101.41 66.29L102.99 67.21L106.86 65C107.277 64.4472 107.776 63.9616 108.34 63.56L107.26 62.94L101.41 66.29Z" fill="var(--fill-0, #CCD9E0)"/>
<path id="Vector_170" d="M98 68.24L100.85 69.88C101.52 69.67 102.19 69.45 102.85 69.22L99.58 67.33L98 68.24Z" fill="var(--fill-0, #CCD9E0)"/>
<path id="Vector_171" d="M98 68.24L100.85 69.88C101.52 69.67 102.19 69.45 102.85 69.22L99.58 67.33L98 68.24Z" fill="var(--fill-0, #CCD9E0)"/>
<path id="Vector_172" d="M93.76 70.71L95.03 71.44C95.78 71.27 96.52 71.1 97.26 70.91L95.34 69.8L93.76 70.71Z" fill="var(--fill-0, #CCD9E0)"/>
<path id="Vector_173" d="M93.76 70.71L95.03 71.44C95.78 71.27 96.52 71.1 97.26 70.91L95.34 69.8L93.76 70.71Z" fill="var(--fill-0, #CCD9E0)"/>
<path id="Vector_174" d="M91.19 72.19L92.38 71.99L92 71.75L91.19 72.19Z" fill="var(--fill-0, #CCD9E0)"/>
<path id="Vector_175" d="M91.19 72.19L92.38 71.99L92 71.75L91.19 72.19Z" fill="var(--fill-0, #CCD9E0)"/>
<path id="Vector_176" d="M78.42 70.68L82.77 73.19C83.69 73.13 84.61 73.05 85.52 72.96L80 69.77L78.42 70.68Z" fill="var(--fill-0, #CCD9E0)"/>
<path id="Vector_177" d="M78.42 70.68L82.77 73.19C83.69 73.13 84.61 73.05 85.52 72.96L80 69.77L78.42 70.68Z" fill="var(--fill-0, #CCD9E0)"/>
<path id="Vector_178" d="M63.07 70.65L66.84 72.83C68.05 72.97 69.26 73.08 70.48 73.17L64.6 69.77L63.07 70.65Z" fill="var(--fill-0, #CCD9E0)"/>
<path id="Vector_179" d="M76.88 73.4L78.2 72.63L76.62 71.72L73.8 73.35C74.83 73.38 75.86 73.4 76.88 73.4Z" fill="var(--fill-0, #CCD9E0)"/>
<path id="Vector_180" d="M52 68.16L57.11 71.16L58.21 71.42L59.45 70.7L53.57 67.3L52 68.16Z" fill="var(--fill-0, #CCD9E0)"/>
<path id="Vector_181" d="M46.29 67.54L48.14 68.3L51.77 66.2L50.18 65.29L46.29 67.54Z" fill="var(--fill-0, #CCD9E0)"/>
<path id="Vector_182" d="M41.63 65.26C42.17 65.56 42.73 65.85 43.29 66.13L47.47 63.72L45.88 62.81L41.63 65.26Z" fill="var(--fill-0, #CCD9E0)"/>
<path id="Vector_183" d="M32 58C32.37 58.39 32.76 58.78 33.16 59.16L36.39 57.3L34.8 56.38L32 58Z" fill="var(--fill-0, #CCD9E0)"/>
<path id="Vector_184" d="M29.26 54.63C29.5467 55.07 29.8567 55.5 30.19 55.92L32.08 54.83L30.49 53.92L29.26 54.63Z" fill="var(--fill-0, #CCD9E0)"/>
<path id="Vector_185" d="M28.3 53.1L28.68 52.87L27.93 52.44L28.3 53.1Z" fill="var(--fill-0, #CCD9E0)"/>
<path id="Vector_186" d="M26.14 47.55C26.25 48.08 26.4 48.61 26.56 49.13L32 46L30.41 45.08L26.14 47.55Z" fill="var(--fill-0, #CCD9E0)"/>
<path id="Vector_187" d="M25.76 44.17L27.06 44.92L28.63 44.02L25.82 42.39C25.7651 42.9816 25.745 43.576 25.76 44.17V44.17Z" fill="var(--fill-0, #CCD9E0)"/>
<path id="Vector_188" d="M26.13 40.49L32 37.12L30.4 36.2L26.68 38.35C26.4411 39.046 26.2506 39.7577 26.11 40.48L26.13 40.49Z" fill="var(--fill-0, #CCD9E0)"/>
<path id="Vector_189" d="M29.59 32.75C29.43 32.97 29.29 33.18 29.14 33.4L30.39 34.12L36.23 30.74L34.65 29.83L29.59 32.75Z" fill="var(--fill-0, #CCD9E0)"/>
<path id="Vector_190" d="M34.94 27.13L34.39 27.6L38 29.7L39.58 28.79L36.72 27.14C36.127 27.1705 35.5327 27.1672 34.94 27.13V27.13Z" fill="var(--fill-0, #CCD9E0)"/>
<path id="Vector_191" d="M42.31 27.24L43.88 26.33L42.88 25.78C42.2587 26.0645 41.6169 26.3019 40.96 26.49L42.31 27.24Z" fill="var(--fill-0, #CCD9E0)"/>
<path id="Vector_192" d="M46.41 23C45.9585 23.6645 45.3891 24.2406 44.73 24.7L45.73 25.25L51.58 21.87L49.94 21L46.41 23Z" fill="var(--fill-0, #CCD9E0)"/>
<path id="Vector_193" d="M53.33 20.87L54.9 20L52.08 18.38C51.41 18.59 50.74 18.81 50.08 19.04L53.33 20.87Z" fill="var(--fill-0, #CCD9E0)"/>
<path id="Vector_194" d="M36.67 67.09C26.89 61.45 21 54 20.12 46C19.24 38 23.29 30.41 31.53 24.2L32.61 23.38L34.33 23.7C36.1901 24.0735 38.1218 23.8056 39.81 22.94C41.25 22.11 41.75 20.89 41.13 19.77L40.58 18.77L42 18.15C52.74 13.4 66.17 11.06 79.8 11.57C93.43 12.08 106.51 15.48 116.29 21.12C126.07 26.76 132 34.27 132.84 42.21C133.68 50.15 129.65 57.85 121.38 64.06L120.32 64.86L118.64 64.57C116.811 64.2242 114.919 64.495 113.26 65.34C111.86 66.15 111.34 67.34 111.91 68.45L112.42 69.45L111 70C100.25 74.78 86.82 77.13 73.17 76.62C59.52 76.11 46.46 72.75 36.67 67.09ZM33.56 25.09C25.69 31 21.82 38.43 22.67 45.94C23.52 53.45 29.13 60.66 38.47 66.06C47.81 71.46 60.2 74.69 73.35 75.18C86.5 75.67 99.21 73.42 109.47 68.86C108.63 67.24 109.39 65.49 111.47 64.3C113.907 63.0533 116.689 62.649 119.38 63.15C127.27 57.23 131.15 49.82 130.32 42.3C129.49 34.78 123.86 27.56 114.51 22.16C105.16 16.76 92.78 13.53 79.65 13C66.52 12.47 53.82 14.75 43.56 19.29C44.48 20.94 43.74 22.72 41.62 23.94C39.1387 25.2185 36.2959 25.6136 33.56 25.06V25.09Z" fill="var(--fill-0, #CCD9E0)"/>
<path id="Vector_195" d="M38.47 66.06C29.26 60.74 23.66 53.7 22.7 46.24C21.74 38.78 25.38 31.51 32.91 25.6L33.51 25.13L34.51 25.24C36.951 25.5621 39.4321 25.1294 41.62 24C43.49 22.93 44.3 21.39 43.8 19.89L43.61 19.32L44.41 18.98C54.66 14.62 67.41 12.53 80.16 13.08C92.91 13.63 105.29 16.87 114.49 22.18C123.69 27.49 129.31 34.53 130.26 42C131.21 49.47 127.55 56.75 120 62.67L119.41 63.13L118.41 63.03C116.002 62.7404 113.563 63.183 111.41 64.3C109.59 65.3 108.77 66.86 109.21 68.3L109.38 68.86L108.59 69.2C98.34 73.57 85.59 75.67 72.81 75.13C60.03 74.59 47.69 71.38 38.47 66.06ZM34.94 27.13C28.22 32.62 25.01 39.34 25.88 46.13C26.79 53.13 32.06 59.78 40.72 64.78C49.38 69.78 60.88 72.78 73.06 73.34C84.82 73.84 96.47 71.97 105.98 68.08C105.71 66.2 106.88 64.35 109.19 63.01C111.898 61.5862 114.947 60.939 118 61.14C124.75 55.65 128 48.92 127.12 42.14C126.23 35.14 120.96 28.48 112.28 23.47C103.6 18.46 92.11 15.42 80 14.9C68.27 14.39 56.64 16.25 47.13 20.12C47.46 22.03 46.3 23.93 43.94 25.29C41.1745 26.7424 38.0537 27.3804 34.94 27.13Z" fill="var(--fill-0, white)"/>
<path id="Vector_196" opacity="0.3" d="M219.66 140.74L187.74 122.28C187.285 122.016 186.908 121.638 186.646 121.182C186.383 120.727 186.245 120.211 186.245 119.685C186.245 119.159 186.383 118.643 186.646 118.188C186.908 117.732 187.285 117.354 187.74 117.09L219.39 98.79C221.212 97.7289 223.282 97.1698 225.39 97.1698C227.498 97.1698 229.568 97.7289 231.39 98.79L263.31 117.25C263.762 117.514 264.137 117.893 264.398 118.347C264.659 118.801 264.796 119.316 264.796 119.84C264.796 120.364 264.659 120.879 264.398 121.333C264.137 121.787 263.762 122.166 263.31 122.43L231.66 140.74C229.836 141.793 227.766 142.348 225.66 142.348C223.554 142.348 221.484 141.793 219.66 140.74Z" fill="var(--fill-0, #5A7D91)"/>
<path id="Vector_197" d="M216.91 140.4L185 121.94C184.561 121.697 184.193 121.345 183.932 120.917C183.671 120.489 183.525 120.001 183.51 119.5V115L262.01 115.19V119.5C262.01 120.024 261.872 120.539 261.61 120.994C261.349 121.448 260.973 121.826 260.52 122.09L228.86 140.4C227.042 141.444 224.982 141.993 222.885 141.993C220.788 141.993 218.728 141.444 216.91 140.4V140.4Z" fill="var(--fill-0, #D0DFE5)"/>
<path id="Vector_198" d="M223 142C225.058 141.978 227.076 141.427 228.86 140.4L260.51 122.09C260.963 121.826 261.339 121.448 261.6 120.994C261.862 120.539 262 120.024 262 119.5V115.19L223 115.09V142Z" fill="var(--fill-0, #B8C9D3)"/>
<path id="Vector_199" d="M216.91 136.05L185 117.59C184.548 117.326 184.173 116.947 183.912 116.493C183.651 116.039 183.514 115.524 183.514 115C183.514 114.476 183.651 113.961 183.912 113.507C184.173 113.053 184.548 112.674 185 112.41L216.64 94.1C218.464 93.0468 220.534 92.4923 222.64 92.4923C224.746 92.4923 226.816 93.0468 228.64 94.1L260.56 112.56C261.015 112.824 261.392 113.202 261.654 113.658C261.917 114.113 262.055 114.629 262.055 115.155C262.055 115.681 261.917 116.197 261.654 116.652C261.392 117.108 261.015 117.486 260.56 117.75L228.91 136.05C227.088 137.111 225.018 137.67 222.91 137.67C220.802 137.67 218.732 137.111 216.91 136.05V136.05Z" fill="var(--fill-0, #E6EDF0)"/>
<path id="Vector_200" d="M222.62 92.5C224.726 92.492 226.797 93.0442 228.62 94.1L260.54 112.56C260.995 112.824 261.372 113.202 261.634 113.658C261.897 114.113 262.035 114.629 262.035 115.155C262.035 115.681 261.897 116.197 261.634 116.652C261.372 117.108 260.995 117.486 260.54 117.75L228.89 136.05C227.066 137.103 224.996 137.658 222.89 137.658C220.784 137.658 218.714 137.103 216.89 136.05L185 117.59C184.548 117.326 184.173 116.947 183.912 116.493C183.651 116.039 183.514 115.524 183.514 115C183.514 114.476 183.651 113.961 183.912 113.507C184.173 113.053 184.548 112.674 185 112.41L216.64 94.1C218.464 93.0459 220.534 92.4939 222.64 92.5H222.62ZM222.64 91.84C220.425 91.8444 218.25 92.427 216.33 93.53L184.68 111.84C184.126 112.16 183.665 112.621 183.345 113.176C183.025 113.731 182.857 114.36 182.857 115C182.857 115.64 183.025 116.269 183.345 116.824C183.665 117.379 184.126 117.84 184.68 118.16L216.59 136.62C218.508 137.728 220.685 138.311 222.9 138.311C225.115 138.311 227.292 137.728 229.21 136.62L260.86 118.32C261.414 117.998 261.874 117.536 262.194 116.981C262.514 116.426 262.682 115.796 262.682 115.155C262.682 114.514 262.514 113.884 262.194 113.329C261.874 112.774 261.414 112.312 260.86 111.99L228.93 93.53C227.01 92.427 224.835 91.8444 222.62 91.84H222.64Z" fill="var(--fill-0, #8CA9B8)"/>
<path id="Vector_201" opacity="0.3" d="M253.08 108.27L238.5 105.63L234 125.13L260.17 112.36L253.08 108.27Z" fill="var(--fill-0, #5A7D91)"/>
<path id="Vector_202" d="M237.54 123.52C229.46 128.18 216.32 128.16 208.19 123.46C203.39 120.69 201.41 116.92 202.26 113.33C202.84 110.84 218.55 45.11 218.55 45.11L226.96 45.17C226.96 45.17 242.75 110.9 243.36 113.4C244.25 117 242.31 120.76 237.54 123.52Z" fill="var(--fill-0, #E6EDF0)"/>
<path id="Vector_203" d="M211.78 99.74C217.9 103.27 227.78 103.29 233.87 99.74C236.66 98.13 238.37 96.05 238.69 93.94C237.36 88.44 235.89 82.32 234.45 76.32C234.14 77.8 232.85 79.25 230.89 80.39C226.44 82.96 219.2 82.94 214.73 80.39C213.047 79.5657 211.737 78.1374 211.06 76.39L207 93.58C207.24 95.8 208.92 98.09 211.78 99.74Z" fill="var(--fill-0, white)"/>
<path id="Vector_204" d="M234.45 76.36C235.89 82.36 237.36 88.48 238.69 93.98C238.37 96.09 236.69 98.17 233.87 99.78C230.487 101.578 226.7 102.48 222.87 102.4C219.001 102.472 215.177 101.557 211.76 99.74C208.9 98.09 207.22 95.8 206.95 93.58L211.04 76.45C211.717 78.1974 213.027 79.6257 214.71 80.45C217.214 81.7218 219.982 82.3847 222.79 82.3847C225.598 82.3847 228.366 81.7218 230.87 80.45C232.87 79.31 234.12 77.86 234.43 76.38L234.45 76.36ZM234.43 75.72C234.281 75.7216 234.138 75.774 234.023 75.8687C233.908 75.9633 233.83 76.0943 233.8 76.24C233.52 77.53 232.37 78.83 230.55 79.88C228.147 81.093 225.492 81.725 222.8 81.725C220.108 81.725 217.453 81.093 215.05 79.88C213.525 79.1504 212.325 77.8823 211.68 76.32C211.641 76.1826 211.559 76.0615 211.445 75.975C211.331 75.8884 211.193 75.8411 211.05 75.84V75.84C210.905 75.845 210.766 75.8977 210.654 75.9899C210.541 76.0821 210.463 76.2086 210.43 76.35L206.34 93.48C206.325 93.5559 206.325 93.6341 206.34 93.71C206.65 96.23 208.52 98.65 211.48 100.36C214.995 102.242 218.934 103.188 222.92 103.11C226.86 103.193 230.755 102.26 234.23 100.4C237.23 98.69 239.02 96.46 239.37 94.12C239.385 94.0373 239.385 93.9527 239.37 93.87L235.09 76.2C235.056 76.0564 234.974 75.9286 234.858 75.8377C234.741 75.7469 234.598 75.6983 234.45 75.7L234.43 75.72Z" fill="var(--fill-0, #8CA9B8)"/>
<path id="Vector_205" opacity="0.15" d="M221.12 45.13L212.69 125.44C220.61 128.03 230.82 127.44 237.54 123.52C242.31 120.76 244.25 116.99 243.36 113.4C242.75 110.9 226.96 45.17 226.96 45.17L221.12 45.13Z" fill="var(--fill-0, #5A7D91)"/>
<path id="Vector_206" opacity="0.25" d="M224.92 45.15L234.2 125.08C235.355 124.653 236.472 124.132 237.54 123.52C242.31 120.76 244.25 116.99 243.36 113.4C242.75 110.9 226.96 45.17 226.96 45.17L224.92 45.15Z" fill="var(--fill-0, #5A7D91)"/>
<path id="Vector_207" d="M218.55 45.11L226.96 45.17C226.96 45.17 242.75 110.9 243.36 113.4C244.25 116.99 242.31 120.76 237.54 123.52C232.988 125.818 227.957 127.011 222.858 127C217.758 126.99 212.733 125.777 208.19 123.46C203.39 120.69 201.41 116.92 202.26 113.33C202.84 110.84 218.55 45.11 218.55 45.11V45.11ZM218.55 44.45C218.4 44.4483 218.254 44.498 218.135 44.5907C218.017 44.6834 217.934 44.8137 217.9 44.96C217.75 45.62 202.19 110.71 201.61 113.18C200.68 117.18 203.01 121.24 207.86 124.04C212.513 126.525 217.726 127.771 223 127.66C228.197 127.766 233.334 126.537 237.92 124.09C242.75 121.3 245.04 117.25 244.05 113.24C243.44 110.78 227.81 45.67 227.65 45.01C227.616 44.868 227.536 44.7416 227.422 44.6509C227.307 44.5602 227.166 44.5106 227.02 44.51L218.6 44.45H218.55Z" fill="var(--fill-0, #8CA9B8)"/>
<path id="Vector_208" d="M222.72 43C223.765 42.9847 224.796 43.2323 225.72 43.72C227.38 44.72 227.39 46.24 225.72 47.19C224.799 47.6839 223.765 47.9287 222.72 47.9C221.675 47.9153 220.644 47.6677 219.72 47.18C218.06 46.18 218.05 44.66 219.72 43.71C220.641 43.2161 221.675 42.9713 222.72 43V43ZM222.72 42.34C221.566 42.3158 220.426 42.5914 219.41 43.14C218.944 43.3194 218.544 43.6356 218.261 44.0471C217.979 44.4585 217.828 44.9459 217.828 45.445C217.828 45.9441 217.979 46.4315 218.261 46.8429C218.544 47.2544 218.944 47.5706 219.41 47.75C220.441 48.3066 221.599 48.5857 222.77 48.56C223.924 48.5842 225.064 48.3086 226.08 47.76C226.546 47.5806 226.946 47.2644 227.229 46.8529C227.511 46.4415 227.662 45.9541 227.662 45.455C227.662 44.9559 227.511 44.4685 227.229 44.0571C226.946 43.6456 226.546 43.3294 226.08 43.15C225.049 42.5934 223.891 42.3143 222.72 42.34V42.34Z" fill="var(--fill-0, #8CA9B8)"/>
<path id="Vector_209" d="M226.994 45.5023C227.002 44.1492 225.105 43.0421 222.758 43.0294C220.411 43.0167 218.502 44.1033 218.495 45.4563C218.487 46.8094 220.384 47.9166 222.731 47.9293C225.078 47.942 226.987 46.8554 226.994 45.5023Z" fill="var(--fill-0, #E6EDF0)"/>
<path id="Vector_210" d="M222.72 43C223.765 42.9847 224.796 43.2323 225.72 43.72C226.024 43.8565 226.296 44.0565 226.517 44.3066C226.738 44.5566 226.902 44.851 227 45.17L240.39 100.9L260.55 112.56C261.009 112.827 261.389 113.212 261.65 113.674C261.912 114.136 262.047 114.659 262.04 115.19V119.5C262.04 120.024 261.902 120.539 261.64 120.994C261.379 121.448 261.003 121.826 260.55 122.09L228.86 140.4C227.036 141.453 224.966 142.008 222.86 142.008C220.754 142.008 218.684 141.453 216.86 140.4L185 121.94C184.561 121.697 184.193 121.345 183.932 120.917C183.671 120.489 183.525 120.001 183.51 119.5V115C183.51 114.476 183.648 113.961 183.91 113.506C184.171 113.052 184.547 112.674 185 112.41L205.28 100.68L218.56 45.11C218.656 44.8134 218.811 44.5392 219.016 44.3038C219.22 44.0684 219.47 43.8767 219.75 43.74C220.671 43.2461 221.705 43.0013 222.75 43.03L222.72 43ZM222.75 41.78C221.491 41.7575 220.247 42.0606 219.14 42.66C218.713 42.8772 218.335 43.1803 218.031 43.5502C217.726 43.9202 217.501 44.3491 217.37 44.81C217.37 44.81 208.92 80 204.18 99.87L184.37 111.33C183.722 111.697 183.183 112.231 182.81 112.876C182.438 113.522 182.244 114.255 182.25 115V119.5C182.267 120.22 182.472 120.924 182.844 121.541C183.215 122.158 183.741 122.668 184.37 123.02L216.28 141.48C218.288 142.639 220.566 143.25 222.885 143.25C225.204 143.25 227.482 142.639 229.49 141.48L261.13 123.17C261.778 122.803 262.317 122.269 262.69 121.624C263.062 120.978 263.256 120.245 263.25 119.5V115.18C263.259 114.43 263.067 113.692 262.695 113.041C262.322 112.39 261.782 111.851 261.13 111.48L241.44 100.09C236.67 80.26 228.17 44.87 228.17 44.87C228.042 44.397 227.816 43.9564 227.506 43.5772C227.195 43.198 226.808 42.8888 226.37 42.67C225.251 42.0626 223.993 41.7559 222.72 41.78H222.75Z" fill="var(--fill-0, #5A7D91)"/>
<path id="Vector_211" opacity="0.3" d="M79.35 117.49L80.55 115.38C80.7989 114.96 80.9417 114.486 80.966 113.999C80.9903 113.512 80.8954 113.026 80.6895 112.584C80.4836 112.141 80.1729 111.756 79.7844 111.461C79.3959 111.166 78.9413 110.97 78.46 110.89L31.83 102.22C30.1785 101.914 28.4726 102.136 26.9541 102.854C25.4357 103.572 24.1817 104.75 23.37 106.22L10.21 130C9.96753 130.419 9.83024 130.891 9.80987 131.375C9.7895 131.859 9.88666 132.341 10.093 132.779C10.2994 133.218 10.6089 133.6 10.9949 133.892C11.381 134.185 11.8322 134.38 12.31 134.46L58.56 143.14C60.201 143.448 61.8971 143.234 63.4106 142.529C64.9241 141.824 66.1792 140.664 67 139.21L76 123.39C77.39 122.5 79.28 121.29 80.09 120.83C81.36 120.12 81.26 118 79.35 117.49Z" fill="var(--fill-0, #5A7D91)"/>
<path id="Vector_212" d="M63.82 138.46L77.39 114.63C77.6496 114.173 77.7874 113.656 77.79 113.13V109.24L6.66 126.79V130.7C6.64922 131.413 6.89294 132.107 7.34743 132.657C7.80193 133.207 8.43745 133.576 9.14 133.7L55.39 142.37C57.0273 142.677 58.7197 142.465 60.2309 141.764C61.7422 141.064 62.9969 139.908 63.82 138.46V138.46Z" fill="var(--fill-0, #D0DFE5)"/>
<path id="Vector_213" d="M57.66 142.46C58.9316 142.334 60.1544 141.905 61.2262 141.209C62.2979 140.513 63.1873 139.57 63.82 138.46L77.39 114.63C77.6496 114.173 77.7874 113.656 77.79 113.13V109.24L76.18 109.63L57.66 133.78V142.46Z" fill="var(--fill-0, #B8C9D3)"/>
<path id="Vector_214" d="M63.82 134.54L77.39 110.71C77.6389 110.29 77.7816 109.816 77.806 109.329C77.8303 108.842 77.7353 108.356 77.5295 107.914C77.3236 107.471 77.0129 107.086 76.6244 106.791C76.2359 106.496 75.7813 106.3 75.3 106.22L28.67 97.55C27.0185 97.2442 25.3126 97.4661 23.7941 98.184C22.2757 98.9019 21.0217 100.08 20.21 101.55L7 125.31C6.75538 125.73 6.61635 126.203 6.59486 126.688C6.57337 127.173 6.67007 127.657 6.87664 128.096C7.08321 128.536 7.39348 128.919 7.78076 129.212C8.16805 129.505 8.62077 129.7 9.1 129.78L55.35 138.45C56.9934 138.766 58.6945 138.559 60.2139 137.857C61.7333 137.156 62.9945 135.996 63.82 134.54V134.54Z" fill="var(--fill-0, #E6EDF0)"/>
<path id="Vector_215" d="M27.2 97.42C27.6929 97.4186 28.185 97.4621 28.67 97.55L75.3 106.22C75.7813 106.3 76.2359 106.496 76.6244 106.791C77.0129 107.086 77.3236 107.471 77.5295 107.914C77.7353 108.356 77.8303 108.842 77.806 109.329C77.7816 109.816 77.6389 110.29 77.39 110.71L63.82 134.54C63.1182 135.776 62.0998 136.803 60.8694 137.515C59.6391 138.226 58.2414 138.598 56.82 138.59C56.3235 138.588 55.8282 138.541 55.34 138.45L9.14 129.78C8.65729 129.706 8.19997 129.515 7.80776 129.224C7.41555 128.933 7.10032 128.551 6.88943 128.11C6.67855 127.67 6.57839 127.184 6.59766 126.696C6.61693 126.208 6.75504 125.732 7 125.31L20.17 101.54C20.8627 100.291 21.8773 99.25 23.1082 98.5255C24.3392 97.801 25.7417 97.4193 27.17 97.42H27.2ZM27.17 96.76C25.6253 96.7616 24.1091 97.176 22.7782 97.9601C21.4473 98.7442 20.3501 99.8696 19.6 101.22L6.46 125C6.1783 125.512 6.0215 126.083 6.00235 126.667C5.98321 127.251 6.10228 127.831 6.34985 128.361C6.59742 128.89 6.9665 129.353 7.42703 129.713C7.88756 130.072 8.42651 130.318 9 130.43L55.25 139.1C57.0214 139.435 58.8532 139.207 60.4886 138.448C62.124 137.689 63.4812 136.438 64.37 134.87L78 111C78.2923 110.487 78.4576 109.912 78.4822 109.322C78.5068 108.732 78.3899 108.145 78.1412 107.61C77.8926 107.074 77.5195 106.606 77.0531 106.244C76.5866 105.883 76.0404 105.638 75.46 105.53L28.79 96.9C28.2649 96.8083 27.733 96.7615 27.2 96.76H27.17Z" fill="var(--fill-0, #8CA9B8)"/>
<path id="Vector_216" opacity="0.3" d="M76.31 112.6L57.83 107.55L53.45 128.01L72.89 118.61L76.31 112.6Z" fill="var(--fill-0, #5A7D91)"/>
<path id="Vector_217" d="M57 126C48.92 130.66 35.78 130.64 27.65 125.94C22.85 123.17 20.87 119.4 21.72 115.81C22.3 113.32 38.01 47.59 38.01 47.59L46.42 47.65C46.42 47.65 62.21 113.38 62.82 115.88C63.75 119.49 61.81 123.26 57 126Z" fill="var(--fill-0, #E6EDF0)"/>
<path id="Vector_218" d="M31.28 102.24C37.4 105.77 47.28 105.79 53.37 102.24C56.16 100.63 57.87 98.55 58.19 96.44C56.86 91 55.39 84.86 54 78.86C53.69 80.34 52.4 81.79 50.44 82.93C45.99 85.5 38.75 85.48 34.28 82.93C32.5971 82.1057 31.2867 80.6774 30.61 78.93L26.47 96.08C26.74 98.3 28.42 100.59 31.28 102.24Z" fill="var(--fill-0, white)"/>
<path id="Vector_219" opacity="0.15" d="M40.62 47.63L32.19 127.94C40.11 130.53 50.32 129.89 57.04 126.02C61.81 123.26 63.75 119.49 62.86 115.9C62.25 113.4 46.46 47.67 46.46 47.67L40.62 47.63Z" fill="var(--fill-0, #5A7D91)"/>
<path id="Vector_220" opacity="0.25" d="M44.42 47.65L53.7 127.58C54.8416 127.145 55.9453 126.616 57 126C61.77 123.24 63.71 119.47 62.82 115.88C62.21 113.38 46.42 47.65 46.42 47.65H44.42Z" fill="var(--fill-0, #5A7D91)"/>
<path id="Vector_221" d="M54 78.86C55.44 84.86 56.91 90.98 58.24 96.48C57.92 98.59 56.24 100.67 53.42 102.28C50.0373 104.078 46.2502 104.98 42.42 104.9C38.5507 104.972 34.727 104.057 31.31 102.24C28.45 100.59 26.77 98.3 26.5 96.08L30.56 79C31.2367 80.7474 32.5471 82.1757 34.23 83C36.7261 84.3317 39.5213 85.003 42.35 84.95C45.1363 84.9988 47.8893 84.3381 50.35 83.03C52.35 81.89 53.6 80.44 53.91 78.96L54 78.86ZM53.91 78.3C53.7614 78.3016 53.6178 78.354 53.5031 78.4487C53.3885 78.5433 53.3097 78.6744 53.28 78.82C53 80 51.88 81.31 50.06 82.36C47.6888 83.6192 45.0342 84.2493 42.35 84.19C39.6367 84.2493 36.9538 83.6088 34.56 82.33C33.0354 81.6004 31.8349 80.3323 31.19 78.77C31.1511 78.6326 31.0686 78.5115 30.955 78.425C30.8414 78.3384 30.7028 78.2911 30.56 78.29V78.29C30.415 78.295 30.2756 78.3477 30.1635 78.4399C30.0515 78.5321 29.9729 78.6587 29.94 78.8L25.83 95.93C25.8146 96.0059 25.8146 96.0841 25.83 96.16C26.14 98.68 28.01 101.1 30.97 102.81C34.4848 104.692 38.4241 105.638 42.41 105.56C46.3502 105.643 50.2454 104.71 53.72 102.85C56.72 101.14 58.51 98.91 58.86 96.57C58.875 96.4873 58.875 96.4027 58.86 96.32L54.59 78.7C54.5559 78.5564 54.474 78.4286 54.3577 78.3377C54.2414 78.2469 54.0976 78.1983 53.95 78.2L53.91 78.3Z" fill="var(--fill-0, #8CA9B8)"/>
<path id="Vector_222" d="M38.05 47.61L46.46 47.67C46.46 47.67 62.25 113.4 62.86 115.9C63.75 119.49 61.86 123.26 57.04 126.02C52.552 128.402 47.5302 129.6 42.45 129.5C37.3121 129.61 32.2313 128.406 27.69 126C22.89 123.23 20.91 119.46 21.76 115.87C22.34 113.38 38.05 47.65 38.05 47.65V47.61ZM38.05 46.99C37.8998 46.9884 37.7535 47.038 37.6353 47.1307C37.5171 47.2234 37.4341 47.3537 37.4 47.5C37.25 48.16 21.69 113.25 21.11 115.72C20.18 119.72 22.51 123.78 27.36 126.58C31.998 129.056 37.1933 130.303 42.45 130.2C47.6469 130.306 52.7841 129.077 57.37 126.63C62.2 123.84 64.49 119.78 63.5 115.78C62.89 113.32 47.26 48.21 47.1 47.55C47.0663 47.4081 46.9859 47.2816 46.8716 47.1909C46.7573 47.1002 46.6159 47.0506 46.47 47.05L38.05 47V46.99Z" fill="var(--fill-0, #8CA9B8)"/>
<path id="Vector_223" d="M42.22 45.53C43.2646 45.5147 44.2962 45.7623 45.22 46.25C46.88 47.25 46.89 48.77 45.22 49.72C44.2989 50.2139 43.2648 50.4587 42.22 50.43C41.1755 50.4453 40.1438 50.1977 39.22 49.71C37.56 48.71 37.55 47.19 39.22 46.24C40.1411 45.7461 41.1752 45.5013 42.22 45.53V45.53ZM42.22 44.87C41.066 44.8458 39.9255 45.1214 38.91 45.67C38.4442 45.8494 38.0438 46.1656 37.7613 46.5771C37.4788 46.9885 37.3276 47.4759 37.3276 47.975C37.3276 48.4741 37.4788 48.9615 37.7613 49.3729C38.0438 49.7844 38.4442 50.1006 38.91 50.28C39.9409 50.8366 41.0987 51.1157 42.27 51.09C43.424 51.1142 44.5645 50.8386 45.58 50.29C46.0458 50.1106 46.4462 49.7944 46.7287 49.3829C47.0112 48.9715 47.1624 48.4841 47.1624 47.985C47.1624 47.4859 47.0112 46.9985 46.7287 46.5871C46.4462 46.1756 46.0458 45.8594 45.58 45.68C44.5491 45.1234 43.3913 44.8443 42.22 44.87V44.87Z" fill="var(--fill-0, #8CA9B8)"/>
<path id="Vector_224" d="M46.4978 48.0032C46.5051 46.6501 44.6083 45.5429 42.2611 45.5302C39.914 45.5175 38.0053 46.6041 37.998 47.9572C37.9906 49.3103 39.8875 50.4175 42.2346 50.4302C44.5818 50.4429 46.4905 49.3563 46.4978 48.0032Z" fill="var(--fill-0, #E6EDF0)"/>
<path id="Vector_225" d="M42.22 45.53C43.2646 45.5147 44.2962 45.7623 45.22 46.25C45.5083 46.3911 45.7645 46.5899 45.9726 46.8342C46.1808 47.0785 46.3365 47.363 46.43 47.67C46.43 47.67 55.06 83.61 59.81 103.35L75.27 106.22C75.9725 106.344 76.6081 106.713 77.0626 107.263C77.5171 107.813 77.7608 108.507 77.75 109.22C77.75 109.22 77.75 111.71 77.75 113.11C77.7474 113.636 77.6096 114.153 77.35 114.61L63.82 138.46C63.1118 139.687 62.0906 140.703 60.8607 141.406C59.6309 142.109 58.2364 142.473 56.82 142.46C56.3232 142.463 55.8275 142.416 55.34 142.32L9.14 133.69C8.43745 133.566 7.80193 133.197 7.34743 132.647C6.89293 132.097 6.64922 131.403 6.66 130.69V126.78C6.64971 126.269 6.76654 125.764 7 125.31L20.17 101.54C20.7735 100.451 21.6229 99.5174 22.6507 98.8143C23.6784 98.1112 24.8561 97.6578 26.09 97.49L38.05 47.61C38.1461 47.3134 38.301 47.0392 38.5055 46.8038C38.71 46.5684 38.9598 46.3767 39.24 46.24C40.1611 45.7461 41.1952 45.5013 42.24 45.53H42.22ZM42.24 44.28C40.981 44.2575 39.7375 44.5606 38.63 45.16C38.2028 45.3772 37.8251 45.6803 37.5206 46.0502C37.216 46.4202 36.9911 46.8491 36.86 47.31C36.86 47.31 29.95 76.21 25.12 96.41C23.8599 96.7065 22.6755 97.2624 21.6424 98.0424C20.6093 98.8224 19.7502 99.8093 19.12 100.94L6 124.71C5.64686 125.346 5.46106 126.062 5.46 126.79V130.69C5.45882 131.693 5.80795 132.664 6.44704 133.436C7.08612 134.209 7.975 134.733 8.96 134.92L55.21 143.59C55.7736 143.698 56.3462 143.751 56.92 143.75C58.5459 143.742 60.141 143.306 61.5451 142.486C62.9493 141.666 64.1132 140.492 64.92 139.08L78.48 115.25C78.8507 114.605 79.0471 113.874 79.05 113.13V109.24C79.0598 108.233 78.7142 107.255 78.0741 106.478C77.4339 105.7 76.5402 105.173 75.55 104.99L60.88 102.27L47.67 47.37C47.5423 46.897 47.3159 46.4564 47.0056 46.0772C46.6954 45.698 46.3083 45.3888 45.87 45.17C44.7508 44.5626 43.4932 44.2559 42.22 44.28H42.24Z" fill="var(--fill-0, #5A7D91)"/>
</g>
</svg>
