<svg preserveAspectRatio="none" width="100%" height="100%" overflow="visible" style="display: block;" viewBox="0 0 18 18" fill="none" xmlns="http://www.w3.org/2000/svg">
<path id="Shape" d="M8.50224 11.25C8.50224 10.2835 7.71874 9.5 6.75224 9.5H4.75224C3.78574 9.5 3.00224 10.2835 3.00224 11.25V13.25C3.00224 14.2165 3.78574 15 4.75224 15H6.75224C7.71874 15 8.50224 14.2165 8.50224 13.25V11.25ZM4.75224 11H6.75224C6.89031 11 7.00224 11.1119 7.00224 11.25V13.25C7.00224 13.3881 6.89031 13.5 6.75224 13.5H4.75224C4.61417 13.5 4.50224 13.3881 4.50224 13.25V11.25C4.50224 11.1119 4.61417 11 4.75224 11ZM14.9997 11.25C14.9997 10.2835 14.2162 9.5 13.2497 9.5H11.2497C10.2832 9.5 9.49971 10.2835 9.49971 11.25V13.25C9.49971 14.2165 10.2832 15 11.2497 15H13.2497C14.2162 15 14.9997 14.2165 14.9997 13.25V11.25ZM11.2497 11H13.2497C13.3878 11 13.4997 11.1119 13.4997 11.25V13.25C13.4997 13.3881 13.3878 13.5 13.2497 13.5H11.2497C11.1116 13.5 10.9997 13.3881 10.9997 13.25V11.25C10.9997 11.1119 11.1116 11 11.2497 11ZM8.50098 4.75C8.50098 3.7835 7.71747 3 6.75098 3H4.75098C3.78448 3 3.00098 3.7835 3.00098 4.75V6.75C3.00098 7.7165 3.78448 8.5 4.75098 8.5H6.75098C7.71747 8.5 8.50098 7.7165 8.50098 6.75V4.75ZM4.75098 4.5H6.75098C6.88905 4.5 7.00098 4.61193 7.00098 4.75V6.75C7.00098 6.88807 6.88905 7 6.75098 7H4.75098C4.61291 7 4.50098 6.88807 4.50098 6.75V4.75C4.50098 4.61193 4.61291 4.5 4.75098 4.5ZM14.9984 4.75C14.9984 3.7835 14.2149 3 13.2484 3H11.2484C10.2819 3 9.49845 3.7835 9.49845 4.75V6.75C9.49845 7.7165 10.2819 8.5 11.2484 8.5H13.2484C14.2149 8.5 14.9984 7.7165 14.9984 6.75V4.75ZM11.2484 4.5H13.2484C13.3865 4.5 13.4984 4.61193 13.4984 4.75V6.75C13.4984 6.88807 13.3865 7 13.2484 7H11.2484C11.1104 7 10.9984 6.88807 10.9984 6.75V4.75C10.9984 4.61193 11.1104 4.5 11.2484 4.5ZM3.25 0C1.45507 0 0 1.45507 0 3.25V14.75C0 16.5449 1.45507 18 3.25 18H14.75C16.5449 18 18 16.5449 18 14.75V3.25C18 1.45507 16.5449 0 14.75 0H3.25ZM1.5 3.25C1.5 2.2835 2.2835 1.5 3.25 1.5H14.75C15.7165 1.5 16.5 2.2835 16.5 3.25V14.75C16.5 15.7165 15.7165 16.5 14.75 16.5H3.25C2.2835 16.5 1.5 15.7165 1.5 14.75V3.25Z" fill="var(--fill-0, #616161)"/>
</svg>
