<svg preserveAspectRatio="none" width="100%" height="100%" overflow="visible" style="display: block;" viewBox="0 0 15.996 15.996" fill="none" xmlns="http://www.w3.org/2000/svg">
<path id="Shape" d="M11.2452 0.815105L1.63939 10.4209L1.52212 10.5488C1.33646 10.7699 1.20039 11.0291 1.12407 11.3089L0.0181704 15.3639L0.00300655 15.4432C-0.0345414 15.7838 0.285522 16.0723 0.632111 15.9778L4.68708 14.8719L4.85236 14.819C5.12323 14.7192 5.36997 14.5617 5.57506 14.3566L15.1809 4.75078L15.3111 4.61151C16.2658 3.51831 16.2224 1.85663 15.1809 0.815105C14.0941 -0.271702 12.332 -0.271702 11.2452 0.815105ZM2.34649 11.128L10.385 3.09L12.906 5.611L4.86796 13.6495L4.77028 13.7352L4.66278 13.8073C4.58815 13.8506 4.50791 13.8843 4.42397 13.9072L1.2122 14.7827L2.08884 11.572L2.13111 11.4491C2.18117 11.3295 2.2542 11.2203 2.34649 11.128ZM14.4738 1.52221L14.5834 1.64212C15.1679 2.34259 15.1314 3.38607 14.4738 4.04367L13.613 4.904L11.092 2.383L11.9523 1.52221L12.0722 1.41261C12.7727 0.828078 13.8162 0.864612 14.4738 1.52221ZM9.64835 0.997711H0.500244C0.224102 0.997711 0.00024414 1.22157 0.00024414 1.49771C0.00024414 1.77385 0.224102 1.99771 0.500244 1.99771H8.64835L9.64835 0.997711ZM6.64835 3.99771H0.500244C0.224102 3.99771 0.00024414 4.22157 0.00024414 4.49771C0.00024414 4.77385 0.224102 4.99771 0.500244 4.99771H5.64835L6.64835 3.99771ZM2.64835 7.99771L3.64835 6.99771H0.500244C0.224102 6.99771 0.00024414 7.22157 0.00024414 7.49771C0.00024414 7.77385 0.224102 7.99771 0.500244 7.99771H2.64835Z" fill="var(--fill-0, #828282)"/>
</svg>
