<svg preserveAspectRatio="none" width="100%" height="100%" overflow="visible" style="display: block;" viewBox="0 0 20 20" fill="none" xmlns="http://www.w3.org/2000/svg">
<g id="24">
<path id="Vector" d="M13.3333 0.833333H5.83333C5.61232 0.833333 5.40036 0.921131 5.24408 1.07741C5.0878 1.23369 5 1.44565 5 1.66667V5.83333L13.3333 10L16.6667 11.25L20 10V5.83333L13.3333 0.833333Z" fill="var(--fill-0, #21A366)"/>
<g id="Vector_2">
</g>
<path id="Vector_3" d="M13.3333 5.85H5V10H13.3333V5.85Z" fill="var(--fill-0, #107C41)"/>
<path id="Vector_4" d="M20 1.66667V5.83333H13.3333V0.833333H19.1667C19.3877 0.833333 19.5996 0.921131 19.7559 1.07741C19.9122 1.23369 20 1.44565 20 1.66667Z" fill="var(--fill-0, #33C481)"/>
<path id="Vector_5" d="M13.3333 10H5V18.3333C5 18.5543 5.0878 18.7663 5.24408 18.9226C5.40036 19.0789 5.61232 19.1667 5.83333 19.1667H19.1667C19.3877 19.1667 19.5996 19.0789 19.7559 18.9226C19.9122 18.7663 20 18.5543 20 18.3333V14.1667L13.3333 10Z" fill="var(--fill-0, #185C37)"/>
<path id="Vector_6" opacity="0.5" d="M11.525 5H5V16.6667H11.3333C11.6297 16.6483 11.9099 16.525 12.1237 16.3189C12.3375 16.1127 12.4709 15.8372 12.5 15.5417V5.975C12.4978 5.71709 12.3944 5.47035 12.212 5.28798C12.0296 5.1056 11.7829 5.00218 11.525 5Z" fill="var(--fill-0, black)"/>
<path id="Back Plate" d="M10.6917 4.16667H0.975C0.436522 4.16667 0 4.60319 0 5.14167V14.8583C0 15.3968 0.436522 15.8333 0.975 15.8333H10.6917C11.2301 15.8333 11.6667 15.3968 11.6667 14.8583V5.14167C11.6667 4.60319 11.2301 4.16667 10.6917 4.16667Z" fill="var(--fill-0, #107C41)"/>
<path id="Vector_7" d="M2.85833 13.3333L5 10L3.03333 6.66667H4.625L5.70833 8.79167C5.78451 8.93725 5.85132 9.08756 5.90833 9.24167C5.97489 9.08218 6.05 8.9264 6.13333 8.775L7.3 6.66667H8.75833L6.73333 10L8.80833 13.3333H7.25833L6.00833 11C5.9399 10.9033 5.88128 10.8 5.83333 10.6917C5.79929 10.7974 5.75167 10.8982 5.69167 10.9917L4.41667 13.3333H2.85833Z" fill="var(--fill-0, white)"/>
<path id="Vector_8" d="M20 10H13.3333V14.1667H20V10Z" fill="var(--fill-0, #107C41)"/>
</g>
</svg>
