<svg preserveAspectRatio="none" width="100%" height="100%" overflow="visible" style="display: block;" viewBox="0 0 17 16" fill="none" xmlns="http://www.w3.org/2000/svg">
<path id="Shape" d="M0 2.5C0 1.11929 1.11929 0 2.5 0H5.16667C5.49122 0 5.80702 0.105266 6.06667 0.3L7.66667 1.5L13.5 1.5C14.8807 1.5 16 2.61929 16 4V7.25716C15.6929 7.00353 15.3578 6.78261 15 6.59971V4C15 3.17157 14.3284 2.5 13.5 2.5L7.61907 2.5L6.15763 4.03449C5.87452 4.33176 5.48195 4.5 5.07143 4.5H1V11.5C1 12.3284 1.67157 13 2.5 13H7.20703C7.30564 13.3486 7.43777 13.6832 7.59971 14H2.5C1.11929 14 0 12.8807 0 11.5V2.5ZM2.5 1C1.67157 1 1 1.67157 1 2.5V3.5L5.07143 3.5C5.20827 3.5 5.33913 3.44392 5.4335 3.34483L6.69446 2.02084L5.46667 1.1C5.38012 1.03509 5.27485 1 5.16667 1L2.5 1ZM8 11.5C8 9.01472 10.0147 7 12.5 7C14.9853 7 17 9.01472 17 11.5C17 13.9853 14.9853 16 12.5 16C10.0147 16 8 13.9853 8 11.5ZM12.5 8C10.567 8 9 9.567 9 11.5C9 12.2862 9.2592 13.0118 9.69681 13.5961L14.5961 8.69681C14.0118 8.2592 13.2862 8 12.5 8ZM15.3032 9.40392L10.4039 14.3032C10.9882 14.7408 11.7138 15 12.5 15C14.433 15 16 13.433 16 11.5C16 10.7138 15.7408 9.98821 15.3032 9.40392Z" fill="var(--fill-0, #828282)"/>
</svg>
