<svg preserveAspectRatio="none" width="100%" height="100%" overflow="visible" style="display: block;" viewBox="0 0 15.5 12.2426" fill="none" xmlns="http://www.w3.org/2000/svg">
<path id="Shape" d="M13.793 5.242L10.4038 8.63173C10.2085 8.82699 10.2085 9.14357 10.4038 9.33883C10.5774 9.5124 10.8468 9.53169 11.0417 9.39669L11.1109 9.33883L15.3536 5.09619C15.5271 4.92263 15.5464 4.6532 15.4114 4.45833L15.3536 4.38909L11.1109 0.146447C10.9157 -0.0488155 10.5991 -0.0488155 10.4038 0.146447C10.2302 0.320013 10.211 0.589437 10.346 0.784305L10.4038 0.853553L13.793 4.242L7.5 4.24264C3.43908 4.24264 0.131982 7.47011 0.00385284 11.4999L0 11.7426C0 12.0188 0.223858 12.2426 0.5 12.2426C0.776142 12.2426 1 12.0188 1 11.7426C1 8.23083 3.785 5.36949 7.26687 5.24674L7.5 5.24264L13.793 5.242Z" fill="var(--fill-0, #2B5D9E)"/>
</svg>
