<svg preserveAspectRatio="none" width="100%" height="100%" overflow="visible" style="display: block;" viewBox="0 0 15.5 15.5" fill="none" xmlns="http://www.w3.org/2000/svg">
<path id="Shape" d="M3.5 1.75C3.5 2.7165 2.7165 3.5 1.75 3.5C0.783502 3.5 0 2.7165 0 1.75C0 0.783502 0.783502 0 1.75 0C2.7165 0 3.5 0.783502 3.5 1.75ZM3.5 7.75C3.5 8.7165 2.7165 9.5 1.75 9.5C0.783502 9.5 0 8.7165 0 7.75C0 6.7835 0.783502 6 1.75 6C2.7165 6 3.5 6.7835 3.5 7.75ZM1.75 15.5C2.7165 15.5 3.5 14.7165 3.5 13.75C3.5 12.7835 2.7165 12 1.75 12C0.783502 12 0 12.7835 0 13.75C0 14.7165 0.783502 15.5 1.75 15.5ZM9.5 1.75C9.5 2.7165 8.7165 3.5 7.75 3.5C6.7835 3.5 6 2.7165 6 1.75C6 0.783502 6.7835 0 7.75 0C8.7165 0 9.5 0.783502 9.5 1.75ZM7.75 9.5C8.7165 9.5 9.5 8.7165 9.5 7.75C9.5 6.7835 8.7165 6 7.75 6C6.7835 6 6 6.7835 6 7.75C6 8.7165 6.7835 9.5 7.75 9.5ZM9.5 13.75C9.5 14.7165 8.7165 15.5 7.75 15.5C6.7835 15.5 6 14.7165 6 13.75C6 12.7835 6.7835 12 7.75 12C8.7165 12 9.5 12.7835 9.5 13.75ZM13.75 3.5C14.7165 3.5 15.5 2.7165 15.5 1.75C15.5 0.783502 14.7165 0 13.75 0C12.7835 0 12 0.783502 12 1.75C12 2.7165 12.7835 3.5 13.75 3.5ZM15.5 7.75C15.5 8.7165 14.7165 9.5 13.75 9.5C12.7835 9.5 12 8.7165 12 7.75C12 6.7835 12.7835 6 13.75 6C14.7165 6 15.5 6.7835 15.5 7.75ZM13.75 15.5C14.7165 15.5 15.5 14.7165 15.5 13.75C15.5 12.7835 14.7165 12 13.75 12C12.7835 12 12 12.7835 12 13.75C12 14.7165 12.7835 15.5 13.75 15.5Z" fill="var(--fill-0, white)"/>
</svg>
