<svg preserveAspectRatio="none" width="100%" height="100%" overflow="visible" style="display: block;" viewBox="0 0 15 17" fill="none" xmlns="http://www.w3.org/2000/svg">
<path id="Shape" d="M15 4.5C15 6.98528 12.9853 9 10.5 9C8.01472 9 6 6.98528 6 4.5C6 2.01472 8.01472 0 10.5 0C12.9853 0 15 2.01472 15 4.5ZM12.1464 2.64645L9.5 5.29289L8.85355 4.64645C8.65829 4.45118 8.34171 4.45118 8.14645 4.64645C7.95118 4.84171 7.95118 5.15829 8.14645 5.35355L9.14645 6.35355C9.34171 6.54882 9.65829 6.54882 9.85355 6.35355L12.8536 3.35355C13.0488 3.15829 13.0488 2.84171 12.8536 2.64645C12.6583 2.45118 12.3417 2.45118 12.1464 2.64645ZM5.02242 4H3C1.89543 4 1 4.89543 1 6V10H4.5C4.77594 10 4.99966 10.2235 5 10.4994L5.00033 10.5114C5.00075 10.5238 5.00165 10.5443 5.00361 10.5718C5.00755 10.6269 5.01565 10.7088 5.03226 10.8084C5.06586 11.0101 5.13214 11.2713 5.25971 11.5264C5.38631 11.7796 5.56834 12.0176 5.83204 12.1933C6.0926 12.3671 6.46249 12.5 7 12.5C7.53751 12.5 7.9074 12.3671 8.16796 12.1933C8.43166 12.0176 8.61369 11.7796 8.74029 11.5264C8.86786 11.2713 8.93414 11.0101 8.96774 10.8084C8.98435 10.7088 8.99245 10.6269 8.99639 10.5718C8.99835 10.5443 8.99925 10.5238 8.99967 10.5114L8.99999 10.4991C8.99999 10.223 9.22386 10 9.5 10H13V9.40029C13.3578 9.21739 13.6929 8.99647 14 8.74284V14C14 15.6569 12.6569 17 11 17H3C1.34315 17 0 15.6569 0 14V6C0 4.34315 1.34315 3 3 3H5.20703C5.11588 3.32228 5.05337 3.65659 5.02242 4ZM4.0505 11H1V14C1 15.1046 1.89543 16 3 16H11C12.1046 16 13 15.1046 13 14V11H9.9495C9.90348 11.2643 9.81345 11.6161 9.63471 11.9736C9.44881 12.3454 9.16209 12.7324 8.72266 13.0254C8.2801 13.3204 7.71249 13.5 7 13.5C6.28751 13.5 5.7199 13.3204 5.27734 13.0254C4.83791 12.7324 4.55119 12.3454 4.36529 11.9736C4.18655 11.6161 4.09652 11.2643 4.0505 11Z" fill="var(--fill-0, #808080)"/>
</svg>
