<svg preserveAspectRatio="none" width="100%" height="100%" overflow="visible" style="display: block;" viewBox="0 0 16 14" fill="none" xmlns="http://www.w3.org/2000/svg">
<path id="Shape" d="M7.74275 0.0712536C7.90109 -0.0237512 8.09891 -0.0237512 8.25725 0.0712536L15.029 4.1343C15.6314 4.49575 16 5.14676 16 5.84929V11.5C16 12.8807 14.8807 14 13.5 14H2.5C1.11929 14 0 12.8807 0 11.5V5.84929C0 5.14676 0.368598 4.49575 0.971008 4.1343L1.18358 4.48859L0.971008 4.1343L7.74275 0.0712536ZM8 1.0831L1.4855 4.99179C1.48096 4.99452 1.47644 4.99728 1.47195 5.00007L8 8.91691L14.5281 5.00007C14.5236 4.99728 14.519 4.99452 14.5145 4.99179L8 1.0831ZM15 5.88309L8.25725 9.92875C8.09891 10.0238 7.90109 10.0238 7.74275 9.92875L1 5.88309V11.5C1 12.3284 1.67157 13 2.5 13H13.5C14.3284 13 15 12.3284 15 11.5V5.88309Z" fill="var(--fill-0, #616161)"/>
</svg>
