<svg preserveAspectRatio="none" width="100%" height="100%" overflow="visible" style="display: block;" viewBox="0 0 14 14" fill="none" xmlns="http://www.w3.org/2000/svg">
<path id="Shape" d="M3 0C1.34315 0 0 1.34315 0 3V11C0 12.6569 1.34315 14 3 14H11C12.6569 14 14 12.6569 14 11V3C14 1.34315 12.6569 0 11 0H3ZM13 7H9.5C9.22386 7 8.99999 7.22297 8.99999 7.49911L8.99967 7.51142C8.99925 7.52383 8.99835 7.54435 8.99639 7.5718C8.99245 7.62686 8.98435 7.7088 8.96774 7.80843C8.93414 8.01005 8.86786 8.27125 8.74029 8.52639C8.61369 8.77958 8.43166 9.01755 8.16796 9.19335C7.9074 9.36706 7.53751 9.5 7 9.5C6.46249 9.5 6.0926 9.36706 5.83204 9.19335C5.56834 9.01755 5.38631 8.77958 5.25971 8.52639C5.13214 8.27125 5.06586 8.01005 5.03226 7.80843C5.01565 7.7088 5.00755 7.62686 5.00361 7.5718C5.00165 7.54435 5.00075 7.52383 5.00033 7.51142L5 7.49938C4.99966 7.22352 4.77594 7 4.5 7H1V3C1 1.89543 1.89543 1 3 1H11C12.1046 1 13 1.89543 13 3V7ZM1 8H4.0505C4.09652 8.26433 4.18655 8.61614 4.36529 8.97361C4.55119 9.34542 4.83791 9.73245 5.27734 10.0254C5.7199 10.3204 6.28751 10.5 7 10.5C7.71249 10.5 8.2801 10.3204 8.72266 10.0254C9.16209 9.73245 9.44881 9.34542 9.63471 8.97361C9.81345 8.61614 9.90348 8.26433 9.9495 8H13V11C13 12.1046 12.1046 13 11 13H3C1.89543 13 1 12.1046 1 11V8Z" fill="var(--fill-0, #828282)"/>
</svg>
