<svg preserveAspectRatio="none" width="100%" height="100%" overflow="visible" style="display: block;" viewBox="0 0 17 16" fill="none" xmlns="http://www.w3.org/2000/svg">
<path id="Shape" d="M2.5 0C1.11929 0 0 1.11929 0 2.5V11.5C0 12.8807 1.11929 14 2.5 14H7.59971C7.43777 13.6832 7.30564 13.3486 7.20703 13H2.5C1.67157 13 1 12.3284 1 11.5V4.5H5.07143C5.48194 4.5 5.87452 4.33176 6.15763 4.03449L7.61907 2.5H13.5C14.3284 2.5 15 3.17157 15 4V6.59971C15.3578 6.78261 15.6929 7.00353 16 7.25716V4C16 2.61929 14.8807 1.5 13.5 1.5H7.66667L6.06667 0.3C5.80702 0.105267 5.49122 0 5.16667 0H2.5ZM1 2.5C1 1.67157 1.67157 1 2.5 1H5.16667C5.27485 1 5.38012 1.03509 5.46667 1.1L6.69446 2.02084L5.4335 3.34483C5.33913 3.44392 5.20827 3.5 5.07143 3.5H1V2.5ZM12.5 7C14.9853 7 17 9.01472 17 11.5C17 13.9853 14.9853 16 12.5 16C10.0147 16 8 13.9853 8 11.5C8 9.01472 10.0147 7 12.5 7ZM14.8532 11.854L14.8557 11.8514C14.9026 11.804 14.938 11.7495 14.9621 11.6914C14.9861 11.6333 14.9996 11.5697 15 11.503L15 11.5L15 11.497C14.9996 11.4303 14.9861 11.3667 14.9621 11.3086C14.9377 11.2496 14.9015 11.1944 14.8536 11.1464L12.8536 9.14645C12.6583 8.95118 12.3417 8.95118 12.1464 9.14645C11.9512 9.34171 11.9512 9.65829 12.1464 9.85355L13.2929 11H10.5C10.2239 11 10 11.2239 10 11.5C10 11.7761 10.2239 12 10.5 12H13.2929L12.1464 13.1464C11.9512 13.3417 11.9512 13.6583 12.1464 13.8536C12.3417 14.0488 12.6583 14.0488 12.8536 13.8536L14.8532 11.854Z" fill="var(--fill-0, #0070CB)"/>
</svg>
