<svg preserveAspectRatio="none" width="100%" height="100%" overflow="visible" style="display: block;" viewBox="0 0 14 14" fill="none" xmlns="http://www.w3.org/2000/svg">
<path id="Shape" d="M11 0C12.5977 0 13.9037 1.24892 13.9949 2.82373L14 3V7.37868C14 7.85018 13.8335 8.30451 13.5331 8.66307L13.4142 8.79289L8.79289 13.4142C8.4595 13.7476 8.02051 13.9511 7.55453 13.9923L7.37868 14H3C1.40232 14 0.0963391 12.7511 0.00509262 11.1763L0 11V3C0 1.40232 1.24892 0.0963391 2.82373 0.00509262L3 0H11ZM11 1H3C1.94564 1 1.08183 1.81588 1.00549 2.85074L1 3V11C1 12.0544 1.81588 12.9182 2.85074 12.9945L3 13H7V10C7 8.40232 8.24892 7.09634 9.82373 7.00509L10 7H13V3C13 1.94564 12.1841 1.08183 11.1493 1.00549L11 1ZM12.7825 8.00134L10 8C8.94564 8 8.08183 8.81588 8.00549 9.85074L8 10V12.781L8.08579 12.7071L12.7071 8.08579C12.7339 8.05895 12.7591 8.03075 12.7825 8.00134Z" fill="var(--fill-0, #828282)"/>
</svg>
