<svg preserveAspectRatio="none" width="100%" height="100%" overflow="visible" style="display: block;" viewBox="0 0 20.0008 20" fill="none" xmlns="http://www.w3.org/2000/svg">
<g id="OneDrive">
<g id="Vector">
</g>
<path id="Vector_2" d="M12.0833 12.5L16.2083 8.55C15.9076 7.37718 15.2726 6.31696 14.3807 5.4982C13.4887 4.67943 12.3782 4.13737 11.1839 3.93789C9.98971 3.73841 8.76325 3.8901 7.65361 4.37453C6.54397 4.85896 5.59893 5.65526 4.93333 6.66667C5 6.66667 12.0833 12.5 12.0833 12.5Z" fill="var(--fill-0, #0364B8)"/>
<path id="Vector_3" d="M7.625 7.40833C6.83565 6.9226 5.92683 6.66582 5 6.66667H4.93333C4.0255 6.67915 3.13819 6.9386 2.36663 7.41716C1.59507 7.89572 0.968378 8.57533 0.553799 9.38308C0.13922 10.1908 -0.0475965 11.0962 0.0133951 12.0021C0.0743868 12.908 0.380885 13.7801 0.9 14.525L7.08333 13.75L11.825 9.925L7.625 7.40833Z" fill="var(--fill-0, #0078D4)"/>
<path id="Vector_4" d="M16.2083 8.55H15.9417C15.3856 8.54847 14.8351 8.66196 14.325 8.88333L11.825 9.93333L14.5833 13.3333L19.5167 14.5333C19.8395 13.9324 20.0059 13.2599 20.0006 12.5778C19.9954 11.8956 19.8187 11.2258 19.4867 10.6299C19.1547 10.034 18.6781 9.53113 18.1009 9.16767C17.5236 8.80422 16.8642 8.59181 16.1833 8.55H16.2083Z" fill="var(--fill-0, #1490DF)"/>
<path id="Vector_5" d="M0.9 14.525C1.3604 15.1858 1.9736 15.7256 2.68745 16.0985C3.40129 16.4713 4.19464 16.6663 5 16.6667H15.9417C16.6743 16.6653 17.393 16.4664 18.0222 16.091C18.6513 15.7156 19.1676 15.1775 19.5167 14.5333L11.825 9.925L0.9 14.525Z" fill="var(--fill-0, #28A8EA)"/>
</g>
</svg>
