<svg preserveAspectRatio="none" width="100%" height="100%" overflow="visible" style="display: block;" viewBox="0 0 16.9995 13.5" fill="none" xmlns="http://www.w3.org/2000/svg">
<path id="Shape" d="M3 3.25C3 2.00736 4.00736 1 5.25 1C6.49264 1 7.5 2.00736 7.5 3.25C7.5 4.49264 6.49264 5.5 5.25 5.5C4.00736 5.5 3 4.49264 3 3.25ZM5.25 0C3.45507 0 2 1.45507 2 3.25C2 5.04493 3.45507 6.5 5.25 6.5C7.04493 6.5 8.5 5.04493 8.5 3.25C8.5 1.45507 7.04493 0 5.25 0ZM10.9368 11.6453C11.4748 11.8644 12.1518 12 12.9995 12C14.881 12 15.9213 11.3322 16.4689 10.5656C16.7335 10.1953 16.8653 9.82574 16.9313 9.54862C16.9644 9.40963 16.9814 9.29194 16.9901 9.20603C16.9945 9.16299 16.9969 9.12766 16.9981 9.1013C16.9987 9.08811 16.9991 9.07714 16.9993 9.06855L16.9995 9.05744L16.9995 9.05326L16.9995 9.05151L16.9995 9.05V9C16.9995 8.17157 16.328 7.5 15.4995 7.5H10.8711C11.1102 7.78952 11.2912 8.12881 11.3962 8.5H15.4995C15.7757 8.5 15.9995 8.72386 15.9995 9V9.04618L15.9993 9.05373C15.9988 9.06326 15.9977 9.08057 15.9953 9.10452C15.9904 9.15259 15.98 9.22631 15.9585 9.317C15.9151 9.49926 15.8281 9.74224 15.6552 9.98438C15.3277 10.4428 14.6181 11 12.9995 11C12.2679 11 11.722 10.8862 11.3132 10.719C11.2312 10.9984 11.1116 11.3153 10.9368 11.6453ZM0 9.5C0 8.39543 0.89543 7.5 2 7.5H8.5C9.60457 7.5 10.5 8.39543 10.5 9.5V9.5625L10.5 9.56401L10.5 9.56585L10.5 9.57047L10.4997 9.5835C10.4995 9.59383 10.4991 9.60744 10.4983 9.62411C10.4968 9.65743 10.4939 9.70308 10.4883 9.75932C10.4772 9.87162 10.4555 10.0272 10.413 10.2118C10.3282 10.58 10.1586 11.0719 9.81762 11.5655C9.1166 12.5801 7.76315 13.5 5.25 13.5C2.73685 13.5 1.3834 12.5801 0.682385 11.5655C0.3414 11.0719 0.171755 10.58 0.0869734 10.2118C0.0444582 10.0272 0.0227795 9.87162 0.0116952 9.75932C0.0061444 9.70308 0.00322378 9.65743 0.00168923 9.62411C0.000921518 9.60744 0.000499398 9.59383 0.000269085 9.5835L4.81904e-05 9.57047L9.65595e-06 9.56585L2.11596e-06 9.56401L0 9.5625V9.5ZM1 9.56021L1.00002 9.56122L1.00063 9.5781C1.00141 9.59514 1.00313 9.62334 1.00686 9.66109C1.01433 9.73678 1.02976 9.84974 1.06146 9.9874C1.12512 10.2638 1.25235 10.6312 1.50512 10.997C1.9916 11.7012 3.01315 12.5 5.25 12.5C7.48685 12.5 8.5084 11.7012 8.99488 10.997C9.24765 10.6312 9.37488 10.2638 9.43854 9.9874C9.47024 9.84974 9.48567 9.73678 9.49314 9.66109C9.49687 9.62334 9.49858 9.59514 9.49937 9.5781L9.49998 9.56122L9.5 9.5602V9.5C9.5 8.94771 9.05228 8.5 8.5 8.5H2C1.44772 8.5 1 8.94771 1 9.5V9.56021ZM11.5 4C11.5 3.17157 12.1716 2.5 13 2.5C13.8284 2.5 14.5 3.17157 14.5 4C14.5 4.82843 13.8284 5.5 13 5.5C12.1716 5.5 11.5 4.82843 11.5 4ZM13 1.5C11.6193 1.5 10.5 2.61929 10.5 4C10.5 5.38071 11.6193 6.5 13 6.5C14.3807 6.5 15.5 5.38071 15.5 4C15.5 2.61929 14.3807 1.5 13 1.5Z" fill="var(--fill-0, #616161)"/>
</svg>
