<svg preserveAspectRatio="none" width="100%" height="100%" overflow="visible" style="display: block;" viewBox="0 0 14.9681 14.9681" fill="none" xmlns="http://www.w3.org/2000/svg">
<path id="Shape" d="M7.12207 1.1059C7.73257 -0.115092 9.35986 -0.379168 10.3251 0.586115L14.382 4.64294C15.3472 5.60822 15.0832 7.23551 13.8622 7.84601L10.4037 9.57524C10.0751 9.73953 9.81827 10.0187 9.68183 10.3598L8.24585 13.9497C7.97923 14.6163 7.11791 14.7931 6.61027 14.2855L4 11.6752L0.707112 14.9681H0V14.261L3.29289 10.9681L0.682624 8.35781C0.174981 7.85017 0.351773 6.98886 1.01834 6.72223L4.60829 5.28625C4.94939 5.14981 5.22855 4.89294 5.39285 4.56435L7.12207 1.1059ZM9.61803 1.29322C9.13539 0.810582 8.32175 0.942618 8.0165 1.55312L6.28727 5.01157C6.01345 5.55921 5.54818 5.98733 4.97968 6.21473L1.38973 7.65071L7.31738 13.5784L8.75336 9.9884C8.98075 9.41991 9.40887 8.95463 9.95651 8.68081L13.415 6.95158C14.0255 6.64633 14.1575 5.83269 13.6749 5.35005L9.61803 1.29322Z" fill="var(--fill-0, #0070CB)"/>
</svg>
