<svg preserveAspectRatio="none" width="100%" height="100%" overflow="visible" style="display: block;" viewBox="0 0 20 20" fill="none" xmlns="http://www.w3.org/2000/svg">
<g id="Powerpoint">
<g id="Vector">
</g>
<path id="Vector_2" d="M10.8333 0.833333C8.40218 0.833333 6.0706 1.7991 4.35152 3.51819C2.63244 5.23727 1.66667 7.56885 1.66667 10L14.0333 13.2L10.8333 0.833333Z" fill="var(--fill-0, #ED6C47)"/>
<path id="Vector_3" d="M10.8333 0.833333C13.2645 0.833333 15.5961 1.7991 17.3151 3.51819C19.0342 5.23727 20 7.56885 20 10L15.4167 12.5L10.8333 10V0.833333Z" fill="var(--fill-0, #FF8F6B)"/>
<path id="Vector_4" d="M1.66667 10C1.66667 12.4312 2.63244 14.7627 4.35152 16.4818C6.0706 18.2009 8.40218 19.1667 10.8333 19.1667C13.2645 19.1667 15.5961 18.2009 17.3151 16.4818C19.0342 14.7627 20 12.4312 20 10H1.66667Z" fill="var(--fill-0, #D35230)"/>
<path id="Vector_5" opacity="0.5" d="M12.5 15.5417V5.975C12.4978 5.71709 12.3944 5.47035 12.212 5.28798C12.0296 5.1056 11.7829 5.00218 11.525 5H3.16667C1.98288 6.79681 1.47474 8.95524 1.73261 11.0914C1.99048 13.2277 2.99765 15.2032 4.575 16.6667H11.3333C11.6297 16.6483 11.9099 16.525 12.1237 16.3189C12.3375 16.1127 12.4709 15.8372 12.5 15.5417Z" fill="var(--fill-0, black)"/>
<path id="Vector_6" opacity="0.1" d="M12.5 15.5417V5.975C12.4978 5.71709 12.3944 5.47035 12.212 5.28798C12.0296 5.1056 11.7829 5.00218 11.525 5H3.16667C1.98288 6.79681 1.47474 8.95524 1.73261 11.0914C1.99048 13.2277 2.99765 15.2032 4.575 16.6667H11.3333C11.6297 16.6483 11.9099 16.525 12.1237 16.3189C12.3375 16.1127 12.4709 15.8372 12.5 15.5417Z" fill="var(--fill-0, black)"/>
<path id="Back Plate" d="M10.6917 4.16667H0.975C0.436522 4.16667 0 4.60319 0 5.14167V14.8583C0 15.3968 0.436522 15.8333 0.975 15.8333H10.6917C11.2301 15.8333 11.6667 15.3968 11.6667 14.8583V5.14167C11.6667 4.60319 11.2301 4.16667 10.6917 4.16667Z" fill="var(--fill-0, #C43E1C)"/>
<path id="Vector_7" d="M6.16667 6.66667C6.8217 6.62126 7.47154 6.8103 8 7.2C8.215 7.39437 8.38354 7.63458 8.49317 7.90288C8.6028 8.17118 8.6507 8.46069 8.63333 8.75C8.64431 9.215 8.54132 9.67563 8.33333 10.0917C8.12438 10.451 7.81426 10.7408 7.44167 10.925C7.02138 11.119 6.56282 11.2158 6.1 11.2083H4.81667V13.3333H3.51667V6.66667H6.16667ZM4.81667 10H5.93333C6.28817 10.0248 6.64011 9.92131 6.925 9.70833C7.04079 9.5868 7.13018 9.44262 7.18755 9.28487C7.24491 9.12711 7.26901 8.95919 7.25833 8.79167C7.25833 8.05833 6.83333 7.69167 5.975 7.69167H4.81667V10Z" fill="var(--fill-0, white)"/>
</g>
</svg>
