<svg preserveAspectRatio="none" width="100%" height="100%" overflow="visible" style="display: block;" viewBox="0 0 15.5 12.2426" fill="none" xmlns="http://www.w3.org/2000/svg">
<path id="Shape" d="M1.707 5.242L5.09619 8.63173C5.29146 8.82699 5.29146 9.14357 5.09619 9.33883C4.92263 9.5124 4.6532 9.53169 4.45834 9.39669L4.38909 9.33883L0.146447 5.09619C-0.0271197 4.92263 -0.046405 4.6532 0.0885911 4.45833L0.146447 4.38909L4.38909 0.146447C4.58435 -0.0488155 4.90093 -0.0488155 5.09619 0.146447C5.26976 0.320013 5.28905 0.589437 5.15405 0.784305L5.09619 0.853553L1.707 4.242L8 4.24264C12.0609 4.24264 15.368 7.47011 15.4961 11.4999L15.5 11.7426C15.5 12.0188 15.2761 12.2426 15 12.2426C14.7239 12.2426 14.5 12.0188 14.5 11.7426C14.5 8.23083 11.715 5.36949 8.23313 5.24674L8 5.24264L1.707 5.242L5.09619 8.63173L1.707 5.242Z" fill="var(--fill-0, #2B5D9E)"/>
</svg>
