<svg preserveAspectRatio="none" width="100%" height="100%" overflow="visible" style="display: block;" viewBox="0 0 14 16" fill="none" xmlns="http://www.w3.org/2000/svg">
<path id="Shape" d="M7 4C7.27614 4 7.5 4.22386 7.5 4.5V9.5C7.5 9.77614 7.27614 10 7 10C6.72386 10 6.5 9.77614 6.5 9.5V4.5C6.5 4.22386 6.72386 4 7 4ZM7 12.5C7.41421 12.5 7.75 12.1642 7.75 11.75C7.75 11.3358 7.41421 11 7 11C6.58579 11 6.25 11.3358 6.25 11.75C6.25 12.1642 6.58579 12.5 7 12.5ZM6.72265 0.0839749C6.8906 -0.0279916 7.1094 -0.0279916 7.27735 0.0839749C9.21554 1.3761 11.3117 2.1823 13.5707 2.50503C13.817 2.54021 14 2.75117 14 3V7.5C14 11.3913 11.693 14.2307 7.17949 15.9667C7.06396 16.0111 6.93604 16.0111 6.82051 15.9667C2.30699 14.2307 0 11.3913 0 7.5V3C0 2.75117 0.182965 2.54021 0.429289 2.50503C2.68833 2.1823 4.78446 1.3761 6.72265 0.0839749ZM6.59914 1.34583C4.85275 2.39606 2.98541 3.09055 1 3.42787V7.5C1 10.892 2.96795 13.3634 7 14.9632C11.0321 13.3634 13 10.892 13 7.5V3.42787C11.0146 3.09055 9.14725 2.39606 7.40086 1.34583L7 1.09715L6.59914 1.34583Z" fill="var(--fill-0, #C42B1C)"/>
</svg>
