<svg preserveAspectRatio="none" width="100%" height="100%" overflow="visible" style="display: block;" viewBox="0 0 16.5564 16.5564" fill="none" xmlns="http://www.w3.org/2000/svg">
<path id="Shape" d="M16.4099 0.146447C16.6052 0.341709 16.6052 0.658291 16.4099 0.853553L11.0872 6.17628C12.5023 7.94313 12.3909 10.5294 10.7531 12.1673L10.0895 12.8309L7.99982 16.3136C7.9206 16.4456 7.78498 16.5338 7.63216 16.5526C7.47935 16.5714 7.32639 16.5188 7.21752 16.4099L0.14645 9.33886C0.0375789 9.22999 -0.0150622 9.07703 0.00375022 8.92421C0.0225623 8.7714 0.11073 8.63577 0.242756 8.55656L3.7255 6.46691L4.38909 5.80332C6.02695 4.16547 8.61323 4.05409 10.3801 5.46918L15.7028 0.146447C15.8981 -0.0488155 16.2146 -0.0488155 16.4099 0.146447ZM4.74265 6.86398L9.69239 11.8137L10.0459 11.4602C11.4128 10.0933 11.4128 7.87726 10.0459 6.51043C8.67911 5.14359 6.46303 5.14359 5.0962 6.51043L4.74265 6.86398ZM3.95803 7.49358L1.30638 9.08457L7.4718 15.25L9.06279 12.5983L3.95803 7.49358Z" fill="var(--fill-0, #616161)"/>
</svg>
