<svg preserveAspectRatio="none" width="100%" height="100%" overflow="visible" style="display: block;" viewBox="0 0 15.5792 15.6129" fill="none" xmlns="http://www.w3.org/2000/svg">
<path id="Shape" d="M11.5654 5C12.1177 5 12.5654 4.55228 12.5654 4C12.5654 3.44772 12.1177 3 11.5654 3C11.0131 3 10.5654 3.44772 10.5654 4C10.5654 4.55228 11.0131 5 11.5654 5ZM8.69465 4.30281e-05C8.16057 -0.00345791 7.64727 0.206807 7.26913 0.583987L0.587589 7.24852C-0.195158 8.02928 -0.195966 9.297 0.585786 10.0788L5.53418 15.0271C6.31523 15.8082 7.58156 15.8082 8.36261 15.0271L14.9934 8.39633C15.3692 8.02054 15.58 7.51063 15.5792 6.97917L15.5719 2.02911C15.5703 0.930807 14.6833 0.0393006 13.585 0.032101L8.69465 4.30281e-05ZM7.97533 1.29199C8.1644 1.1034 8.42105 0.998271 8.68809 1.00002L13.5785 1.03208C14.1276 1.03568 14.5711 1.48143 14.5719 2.03058L14.5792 6.98065C14.5796 7.24637 14.4742 7.50133 14.2863 7.68923L7.6555 14.32C7.26498 14.7106 6.63181 14.7106 6.24129 14.32L1.29289 9.37164C0.902017 8.98077 0.902421 8.34691 1.29379 7.95653L7.97533 1.29199Z" fill="var(--fill-0, #656565)"/>
</svg>
