<svg preserveAspectRatio="none" width="100%" height="100%" overflow="visible" style="display: block;" viewBox="0 0 13.003 16" fill="none" xmlns="http://www.w3.org/2000/svg">
<path id="Shape" d="M1 0.500001C1 0.223858 0.776142 0 0.5 0C0.223858 0 0 0.223858 0 0.500001V5.4C0 5.73137 0.268628 6 0.6 6H5.5C5.77614 6 6 5.77614 6 5.5C6 5.22386 5.77614 5 5.5 5H1.90603L5.37872 1.98124C7.04598 0.531912 9.57247 0.708581 11.0218 2.37584C12.4711 4.0431 12.2945 6.56959 10.6272 8.01891L2.45529 15.1226C2.24688 15.3038 2.2248 15.6196 2.40596 15.828C2.58713 16.0364 2.90294 16.0585 3.11135 15.8774L11.2833 8.77362C13.3673 6.96197 13.5882 3.80385 11.7765 1.71978C9.96485 -0.364293 6.80673 -0.585129 4.72266 1.22653L1 4.46259V0.500001Z" fill="var(--fill-0, #616161)"/>
</svg>
