<svg preserveAspectRatio="none" width="100%" height="100%" overflow="visible" style="display: block;" viewBox="0 0 20 20" fill="none" xmlns="http://www.w3.org/2000/svg">
<g id="Word">
<g id="Vector">
</g>
<path id="Vector_2" d="M20 5.83334V1.66668C20 1.44566 19.9122 1.2337 19.7559 1.07742C19.5996 0.921141 19.3877 0.833344 19.1667 0.833344H5.83333C5.61232 0.833344 5.40036 0.921141 5.24408 1.07742C5.0878 1.2337 5 1.44566 5 1.66668V5.83334L12.5 7.50001L20 5.83334Z" fill="var(--fill-0, #41A5EE)"/>
<path id="Vector_3" d="M20 5.83334H5V10L12.9167 11.6667L20 10V5.83334Z" fill="var(--fill-0, #2B7CD3)"/>
<path id="Vector_4" d="M20 10H5V14.1667L12.5 15.4167L20 14.1667V10Z" fill="var(--fill-0, #185ABD)"/>
<path id="Vector_5" d="M5 14.1667H20V18.3333C20 18.5543 19.9122 18.7663 19.7559 18.9226C19.5996 19.0789 19.3877 19.1667 19.1667 19.1667H5.83333C5.61232 19.1667 5.40036 19.0789 5.24408 18.9226C5.0878 18.7663 5 18.5543 5 18.3333V14.1667Z" fill="var(--fill-0, #103F91)"/>
<path id="Vector_6" opacity="0.5" d="M11.525 5H5V16.6667H11.3333C11.6297 16.6483 11.9099 16.525 12.1237 16.3189C12.3375 16.1127 12.4709 15.8372 12.5 15.5417V5.975C12.4978 5.71709 12.3944 5.47035 12.212 5.28798C12.0296 5.1056 11.7829 5.00218 11.525 5Z" fill="var(--fill-0, black)"/>
<path id="Back Plate" d="M10.6917 4.16666H0.975C0.436522 4.16666 0 4.60318 0 5.14166V14.8583C0 15.3968 0.436522 15.8333 0.975 15.8333H10.6917C11.2301 15.8333 11.6667 15.3968 11.6667 14.8583V5.14166C11.6667 4.60318 11.2301 4.16666 10.6917 4.16666Z" fill="var(--fill-0, #185ABD)"/>
<path id="Letter" d="M8.46667 13.3333H7.26667L5.83334 8.73332L4.4 13.3333H3.2L1.86667 6.66666H3.06667L4 11.3333L5.4 6.79999H6.4L7.73334 11.3333L8.66667 6.66666H9.8L8.46667 13.3333Z" fill="var(--fill-0, white)"/>
</g>
</svg>
